<?xml version="1.0" encoding="UTF-8" standalone="no"?>
<svg
   xmlns:dc="http://purl.org/dc/elements/1.1/"
   xmlns:cc="http://creativecommons.org/ns#"
   xmlns:rdf="http://www.w3.org/1999/02/22-rdf-syntax-ns#"
   xmlns:svg="http://www.w3.org/2000/svg"
   xmlns="http://www.w3.org/2000/svg"
   xmlns:sodipodi="http://sodipodi.sourceforge.net/DTD/sodipodi-0.dtd"
   xmlns:inkscape="http://www.inkscape.org/namespaces/inkscape"
   version="1.1"
   id="svg2"
   xml:space="preserve"
   width="1557.7322"
   height="502.4704"
   viewBox="0 0 1557.7321 502.47039"
   sodipodi:docname="tide_logo.svg"
   inkscape:version="1.0.1 (3bc2e813f5, 2020-09-07)"><metadata
     id="metadata8"><rdf:RDF><cc:Work
         rdf:about=""><dc:format>image/svg+xml</dc:format><dc:type
           rdf:resource="http://purl.org/dc/dcmitype/StillImage" /><dc:title></dc:title></cc:Work></rdf:RDF></metadata><defs
     id="defs6"><clipPath
       clipPathUnits="userSpaceOnUse"
       id="clipPath18"><path
         d="M 0,2000 H 2000 V 0 H 0 Z"
         id="path16" /></clipPath></defs><sodipodi:namedview
     pagecolor="#ffffff"
     bordercolor="#666666"
     borderopacity="1"
     objecttolerance="10"
     gridtolerance="10"
     guidetolerance="10"
     inkscape:pageopacity="0"
     inkscape:pageshadow="2"
     inkscape:window-width="3378"
     inkscape:window-height="1417"
     id="namedview4"
     showgrid="false"
     inkscape:zoom="0.37799999"
     inkscape:cx="778.86579"
     inkscape:cy="325.97543"
     inkscape:window-x="-8"
     inkscape:window-y="-8"
     inkscape:window-maximized="1"
     inkscape:current-layer="g14" /><g
     id="g10"
     inkscape:groupmode="layer"
     inkscape:label="AI FILE"
     transform="matrix(1.3333333,0,0,-1.3333333,-554.46759,1659.3088)"><g
       id="g12"><g
         id="g14"
         clip-path="url(#clipPath18)"><g
           id="g72"
           transform="translate(535.3672,1066.1318)"><path
             d="M 0,0 V -198.503 H 71.063 V 24.376 C 55.027,20.325 39.426,15.426 24.342,9.838 16.049,6.766 7.967,3.439 0,0"
             style="fill:#13588c;fill-opacity:1;fill-rule:nonzero;stroke:none"
             id="path74" /></g><g
           id="g76"
           transform="translate(606.4297,1148.3335)"><path
             d="M 0,0 V 31.546 H 119.517 V 96.148 H -190.579 V 31.546 h 119.516 v -53.007 c 1.029,0.393 2.033,0.809 3.067,1.196 C -46.425,-12.188 -23.706,-5.252 0,0"
             style="fill:#0ab6da;fill-opacity:1;fill-rule:nonzero;stroke:none"
             id="path78" /></g><g
           id="g80"
           transform="translate(883.1255,1055.8799)"><path
             d="m 0,0 c -23.882,12.829 -47.366,22.653 -70.383,29.916 -0.048,0.014 -0.095,0.026 -0.142,0.041 V -188.251 H 0 Z"
             style="fill:#13588c;fill-opacity:1;fill-rule:nonzero;stroke:none"
             id="path82" /></g><g
           id="g84"
           transform="translate(883.1255,1118.7026)"><path
             d="M 0,0 V 125.779 H -70.525 V 25.721 c 5.67,-1.536 11.356,-3.185 17.06,-4.985 C -35.772,15.159 -17.931,8.266 0,0"
             style="fill:#0ab6da;fill-opacity:1;fill-rule:nonzero;stroke:none"
             id="path86" /></g><g
           id="g88"
           transform="translate(1372.5732,1022.6763)"><path
             d="m 0,0 h 108.802 c 33.799,15.529 65.824,35.404 95.236,60.271 v 5.948 H 0 v 86.676 h 211.576 v 68.91 H -70.525 V -42.382 c 23.673,1.149 47.261,3.872 70.525,8.207 z"
             style="fill:#0ab6da;fill-opacity:1;fill-rule:nonzero;stroke:none"
             id="path90" /></g><g
           id="g92"
           transform="translate(1302.0479,867.6289)"><path
             d="M 0,0 H 282.102 V 69.988 H 102.3 C 68.562,62.301 34.259,57.874 0,56.366 Z"
             style="fill:#13588c;fill-opacity:1;fill-rule:nonzero;stroke:none"
             id="path94" /></g><g
           id="g96"
           transform="translate(1130.5439,1056.0576)"><path
             d="m 0,0 -37.962,-46.827 c 4.479,-1.481 8.943,-2.983 13.485,-4.36 22.406,-6.799 45.554,-12.31 69.137,-16.441 L 99.484,0 -53.268,188.424 h -99.483 z"
             style="fill:#0ab6da;fill-opacity:1;fill-rule:nonzero;stroke:none"
             id="path98" /></g><g
           id="g100"
           transform="translate(1054.9619,962.8232)"><path
             d="m 0,0 -77.171,-95.194 h 99.484 l 57.915,71.44 c -15.388,3.46 -30.56,7.459 -45.454,11.976 C 22.981,-8.198 11.417,-4.211 0,0"
             style="fill:#13588c;fill-opacity:1;fill-rule:nonzero;stroke:none"
             id="path102" /></g></g></g></g></svg>
