<svg xmlns="http://www.w3.org/2000/svg" xmlns:svg="http://www.w3.org/2000/svg" id="svg2" width="1557.732" height="502.47" version="1.1" viewBox="0 0 1557.732 502.47" xml:space="preserve"><metadata id="metadata8"/><defs id="defs6"><clipPath id="clipPath18" clipPathUnits="userSpaceOnUse"><path id="path16" d="M 0,2000 H 2000 V 0 H 0 Z"/></clipPath></defs><g id="g10" transform="matrix(1.3333333,0,0,-1.3333333,-554.46759,1659.3088)"><g id="g12"><g id="g14" clip-path="url(#clipPath18)"><g id="g72" transform="translate(535.3672,1066.1318)"><path style="fill:#13588c;fill-opacity:1;fill-rule:nonzero;stroke:none" id="path74" d="M 0,0 V -198.503 H 71.063 V 24.376 C 55.027,20.325 39.426,15.426 24.342,9.838 16.049,6.766 7.967,3.439 0,0"/></g><g id="g76" transform="translate(606.4297,1148.3335)"><path style="fill:#0ab6da;fill-opacity:1;fill-rule:nonzero;stroke:none" id="path78" d="M 0,0 V 31.546 H 119.517 V 96.148 H -190.579 V 31.546 h 119.516 v -53.007 c 1.029,0.393 2.033,0.809 3.067,1.196 C -46.425,-12.188 -23.706,-5.252 0,0"/></g><g id="g80" transform="translate(883.1255,1055.8799)"><path style="fill:#13588c;fill-opacity:1;fill-rule:nonzero;stroke:none" id="path82" d="m 0,0 c -23.882,12.829 -47.366,22.653 -70.383,29.916 -0.048,0.014 -0.095,0.026 -0.142,0.041 V -188.251 H 0 Z"/></g><g id="g84" transform="translate(883.1255,1118.7026)"><path style="fill:#0ab6da;fill-opacity:1;fill-rule:nonzero;stroke:none" id="path86" d="M 0,0 V 125.779 H -70.525 V 25.721 c 5.67,-1.536 11.356,-3.185 17.06,-4.985 C -35.772,15.159 -17.931,8.266 0,0"/></g><g id="g88" transform="translate(1372.5732,1022.6763)"><path style="fill:#0ab6da;fill-opacity:1;fill-rule:nonzero;stroke:none" id="path90" d="m 0,0 h 108.802 c 33.799,15.529 65.824,35.404 95.236,60.271 v 5.948 H 0 v 86.676 h 211.576 v 68.91 H -70.525 V -42.382 c 23.673,1.149 47.261,3.872 70.525,8.207 z"/></g><g id="g92" transform="translate(1302.0479,867.6289)"><path style="fill:#13588c;fill-opacity:1;fill-rule:nonzero;stroke:none" id="path94" d="M 0,0 H 282.102 V 69.988 H 102.3 C 68.562,62.301 34.259,57.874 0,56.366 Z"/></g><g id="g96" transform="translate(1130.5439,1056.0576)"><path style="fill:#0ab6da;fill-opacity:1;fill-rule:nonzero;stroke:none" id="path98" d="m 0,0 -37.962,-46.827 c 4.479,-1.481 8.943,-2.983 13.485,-4.36 22.406,-6.799 45.554,-12.31 69.137,-16.441 L 99.484,0 -53.268,188.424 h -99.483 z"/></g><g id="g100" transform="translate(1054.9619,962.8232)"><path style="fill:#13588c;fill-opacity:1;fill-rule:nonzero;stroke:none" id="path102" d="m 0,0 -77.171,-95.194 h 99.484 l 57.915,71.44 c -15.388,3.46 -30.56,7.459 -45.454,11.976 C 22.981,-8.198 11.417,-4.211 0,0"/></g></g></g></g></svg>