<svg xmlns="http://www.w3.org/2000/svg" xmlns:svg="http://www.w3.org/2000/svg" id="svg2" width="1557.732" height="651.95" version="1.1" viewBox="0 0 1557.732 651.95" xml:space="preserve"><metadata id="metadata8"/><defs id="defs6"><clipPath id="clipPath18" clipPathUnits="userSpaceOnUse"><path id="path16" d="M 0,2000 H 2000 V 0 H 0 Z"/></clipPath></defs><g id="g10" transform="matrix(1.3333333,0,0,-1.3333333,-554.46759,1659.3088)"><g id="g12"><g id="g14" clip-path="url(#clipPath18)"><g id="g20" transform="translate(504.0205,780.8398)" style="fill:#195e92;fill-opacity:1"><path style="fill:#195e92;fill-opacity:1;fill-rule:nonzero;stroke:none" id="path22" d="m 0,0 c 1.676,1.773 2.514,4.37 2.514,7.791 0,3.428 -1.063,5.846 -3.187,7.264 -2.125,1.415 -5.455,2.125 -9.988,2.125 h -8.501 V -2.654 h 9.705 C -4.83,-2.654 -1.678,-1.768 0,0 m 5.915,20.437 c 3.445,-2.879 5.17,-7.319 5.17,-13.319 0,-5.996 -1.759,-10.389 -5.277,-13.175 -3.519,-2.785 -8.914,-4.178 -16.186,-4.178 h -8.784 v -14.52 h -8.359 v 49.513 h 17.001 c 7.509,0 12.987,-1.441 16.435,-4.321"/></g><g id="g24" transform="translate(578.8564,782.5059)" style="fill:#195e92;fill-opacity:1"><path style="fill:#195e92;fill-opacity:1;fill-rule:nonzero;stroke:none" id="path26" d="m 0,0 c 1.699,1.466 2.55,3.812 2.55,7.05 0,3.232 -0.874,5.452 -2.621,6.656 -1.748,1.204 -4.864,1.808 -9.351,1.808 H -20.047 V -2.194 H -9.634 C -4.912,-2.194 -1.7,-1.465 0,0 M 11.121,7.012 C 11.121,-1.157 7.554,-6.304 0.424,-8.43 L 13.387,-26.421 H 2.762 L -9.067,-9.775 h -10.98 v -16.646 h -8.359 v 49.513 h 18.418 c 7.554,0 12.962,-1.277 16.221,-3.823 3.258,-2.554 4.888,-6.635 4.888,-12.257"/></g><g id="g28" transform="translate(662.8311,793.9102)" style="fill:#195e92;fill-opacity:1"><path style="fill:#195e92;fill-opacity:1;fill-rule:nonzero;stroke:none" id="path30" d="m 0,0 c -3.377,3.493 -7.521,5.242 -12.431,5.242 -4.913,0 -9.057,-1.749 -12.433,-5.242 -3.377,-3.493 -5.064,-7.731 -5.064,-12.715 0,-4.984 1.687,-9.222 5.064,-12.713 3.376,-3.496 7.52,-5.244 12.433,-5.244 4.91,0 9.054,1.748 12.431,5.244 3.375,3.491 5.064,7.729 5.064,12.713 C 5.064,-7.731 3.375,-3.493 0,0 m 6.126,-30.99 c -5.005,-4.889 -11.191,-7.329 -18.557,-7.329 -7.367,0 -13.555,2.44 -18.559,7.329 -5.006,4.889 -7.509,10.98 -7.509,18.275 0,7.298 2.503,13.388 7.509,18.277 5.004,4.887 11.192,7.33 18.559,7.33 7.366,0 13.552,-2.443 18.557,-7.33 5.006,-4.889 7.509,-10.979 7.509,-18.277 0,-7.295 -2.503,-13.386 -7.509,-18.275"/></g><g id="g32" transform="translate(720.8794,756.085)" style="fill:#195e92;fill-opacity:1"><path style="fill:#195e92;fill-opacity:1;fill-rule:nonzero;stroke:none" id="path34" d="M 0,0 H -8.359 V 49.513 H 4.675 L 19.622,18.416 34.567,49.513 H 47.531 V 0 h -8.36 V 38.678 L 21.887,4.32 H 17.213 L 0,38.678 Z"/></g><g id="g36" transform="translate(835.1699,780.8398)" style="fill:#195e92;fill-opacity:1"><path style="fill:#195e92;fill-opacity:1;fill-rule:nonzero;stroke:none" id="path38" d="m 0,0 c 1.676,1.773 2.514,4.37 2.514,7.791 0,3.428 -1.063,5.846 -3.187,7.264 -2.126,1.415 -5.455,2.125 -9.988,2.125 h -8.501 V -2.654 h 9.705 C -4.83,-2.654 -1.678,-1.768 0,0 m 5.914,20.437 c 3.446,-2.879 5.171,-7.319 5.171,-13.319 0,-5.996 -1.759,-10.389 -5.278,-13.175 -3.518,-2.785 -8.914,-4.178 -16.185,-4.178 h -8.784 v -14.52 h -8.359 v 49.513 h 17.001 c 7.509,0 12.986,-1.441 16.434,-4.321"/></g><g id="g40" transform="translate(900.3008,797.9473)" style="fill:#195e92;fill-opacity:1"><path style="fill:#195e92;fill-opacity:1;fill-rule:nonzero;stroke:none" id="path42" d="M 0,0 V -41.862 H -8.357 V 0 H -23.375 V 7.65 H 15.017 V 0 Z"/></g><g id="g44" transform="translate(1003.1523,756.085)" style="fill:#195e92;fill-opacity:1"><path style="fill:#195e92;fill-opacity:1;fill-rule:nonzero;stroke:none" id="path46" d="M 0,0 H -8.359 V 49.513 H 4.676 L 19.622,18.416 34.566,49.513 H 47.53 V 0 H 39.172 V 38.678 L 21.888,4.32 H 17.213 L 0,38.678 Z"/></g><g id="g48" transform="translate(1118.3281,775.0664)" style="fill:#195e92;fill-opacity:1"><path style="fill:#195e92;fill-opacity:1;fill-rule:nonzero;stroke:none" id="path50" d="M 0,0 -8.996,20.4 -17.992,0 Z m -21.393,-7.719 -4.959,-11.262 h -8.924 l 21.816,49.512 h 8.926 L 17.284,-18.981 H 8.357 L 3.4,-7.719 Z"/></g><g id="g52" transform="translate(1205.1006,805.5977)" style="fill:#195e92;fill-opacity:1"><path style="fill:#195e92;fill-opacity:1;fill-rule:nonzero;stroke:none" id="path54" d="m 0,0 h 8.357 v -49.513 h -9.066 l -28.05,36.124 v -36.124 h -8.359 V 0 h 8.359 L 0,-36.977 Z"/></g><g id="g56" transform="translate(1281.1064,775.0664)" style="fill:#195e92;fill-opacity:1"><path style="fill:#195e92;fill-opacity:1;fill-rule:nonzero;stroke:none" id="path58" d="M 0,0 -8.996,20.4 -17.992,0 Z m -21.393,-7.719 -4.958,-11.262 h -8.925 l 21.817,49.512 h 8.925 L 17.284,-18.981 H 8.357 L 3.4,-7.719 Z"/></g><g id="g60" transform="translate(1365.0449,780.167)" style="fill:#195e92;fill-opacity:1"><path style="fill:#195e92;fill-opacity:1;fill-rule:nonzero;stroke:none" id="path62" d="M 0,0 H 8.357 V -16.929 C 3.682,-22.076 -3,-24.648 -11.689,-24.648 c -7.32,0 -13.447,2.405 -18.381,7.222 -4.936,4.817 -7.403,10.91 -7.403,18.278 0,7.367 2.515,13.504 7.544,18.416 5.03,4.912 11.109,7.367 18.24,7.367 7.129,0 13.056,-2.078 17.78,-6.235 L 1.629,14.026 c -1.938,1.651 -3.885,2.799 -5.844,3.437 -1.961,0.636 -4.24,0.956 -6.836,0.956 -5.006,0 -9.208,-1.619 -12.608,-4.855 -3.401,-3.232 -5.101,-7.483 -5.101,-12.747 0,-5.266 1.653,-9.493 4.959,-12.68 3.305,-3.186 7.308,-4.783 12.007,-4.783 4.697,0 8.629,1.015 11.794,3.046 z"/></g><g id="g64" transform="translate(1444.6611,805.5977)" style="fill:#195e92;fill-opacity:1"><path style="fill:#195e92;fill-opacity:1;fill-rule:nonzero;stroke:none" id="path66" d="m 0,0 v -7.86 h -26.421 v -13.106 h 23.73 v -7.439 h -23.73 V -41.649 H 0.851 v -7.864 H -34.78 V 0 Z"/></g><g id="g68" transform="translate(1510.1113,782.5059)" style="fill:#195e92;fill-opacity:1"><path style="fill:#195e92;fill-opacity:1;fill-rule:nonzero;stroke:none" id="path70" d="m 0,0 c 1.698,1.466 2.55,3.812 2.55,7.05 0,3.232 -0.874,5.452 -2.619,6.656 -1.748,1.204 -4.868,1.808 -9.351,1.808 H -20.048 V -2.194 H -9.634 C -4.911,-2.194 -1.697,-1.465 0,0 M 11.122,7.012 C 11.122,-1.157 7.553,-6.304 0.425,-8.43 L 13.389,-26.421 H 2.761 L -9.068,-9.775 h -10.98 v -16.646 h -8.357 v 49.513 h 18.419 c 7.552,0 12.961,-1.277 16.218,-3.823 3.257,-2.554 4.89,-6.635 4.89,-12.257"/></g><g id="g72" transform="translate(535.3672,1066.1318)" style="fill:#195e92;fill-opacity:1"><path style="fill:#195e92;fill-opacity:1;fill-rule:nonzero;stroke:none" id="path74" d="M 0,0 V -198.503 H 71.063 V 24.376 C 55.027,20.325 39.426,15.426 24.342,9.838 16.049,6.766 7.967,3.439 0,0"/></g><g id="g76" transform="translate(606.4297,1148.3335)" style="fill:#11bde1;fill-opacity:1"><path style="fill:#11bde1;fill-opacity:1;fill-rule:nonzero;stroke:none" id="path78" d="M 0,0 V 31.546 H 119.517 V 96.148 H -190.579 V 31.546 h 119.516 v -53.007 c 1.029,0.393 2.033,0.809 3.067,1.196 C -46.425,-12.188 -23.706,-5.252 0,0"/></g><g id="g80" transform="translate(883.1255,1055.8799)" style="fill:#195e92;fill-opacity:1"><path style="fill:#195e92;fill-opacity:1;fill-rule:nonzero;stroke:none" id="path82" d="m 0,0 c -23.882,12.829 -47.366,22.653 -70.383,29.916 -0.048,0.014 -0.095,0.026 -0.142,0.041 V -188.251 H 0 Z"/></g><g id="g84" transform="translate(883.1255,1118.7026)" style="fill:#11bde1;fill-opacity:1"><path style="fill:#11bde1;fill-opacity:1;fill-rule:nonzero;stroke:none" id="path86" d="M 0,0 V 125.779 H -70.525 V 25.721 c 5.67,-1.536 11.356,-3.185 17.06,-4.985 C -35.772,15.159 -17.931,8.266 0,0"/></g><g id="g88" transform="translate(1372.5732,1022.6763)" style="fill:#11bde1;fill-opacity:1"><path style="fill:#11bde1;fill-opacity:1;fill-rule:nonzero;stroke:none" id="path90" d="m 0,0 h 108.802 c 33.799,15.529 65.824,35.404 95.236,60.271 v 5.948 H 0 v 86.676 h 211.576 v 68.91 H -70.525 V -42.382 c 23.673,1.149 47.261,3.872 70.525,8.207 z"/></g><g id="g92" transform="translate(1302.0479,867.6289)" style="fill:#195e92;fill-opacity:1"><path style="fill:#195e92;fill-opacity:1;fill-rule:nonzero;stroke:none" id="path94" d="M 0,0 H 282.102 V 69.988 H 102.3 C 68.562,62.301 34.259,57.874 0,56.366 Z"/></g><g id="g96" transform="translate(1130.5439,1056.0576)" style="fill:#11bde1;fill-opacity:1"><path style="fill:#11bde1;fill-opacity:1;fill-rule:nonzero;stroke:none" id="path98" d="m 0,0 -37.962,-46.827 c 4.479,-1.481 8.943,-2.983 13.485,-4.36 22.406,-6.799 45.554,-12.31 69.137,-16.441 L 99.484,0 -53.268,188.424 h -99.483 z"/></g><g id="g100" transform="translate(1054.9619,962.8232)" style="fill:#195e92;fill-opacity:1"><path style="fill:#195e92;fill-opacity:1;fill-rule:nonzero;stroke:none" id="path102" d="m 0,0 -77.171,-95.194 h 99.484 l 57.915,71.44 c -15.388,3.46 -30.56,7.459 -45.454,11.976 C 22.981,-8.198 11.417,-4.211 0,0"/></g></g></g></g></svg>