<svg xmlns="http://www.w3.org/2000/svg" xmlns:xlink="http://www.w3.org/1999/xlink" width="920" height="499.33"><rect width="920" height="499.33" rx="0" ry="0" class="a"/><svg height="499.33" viewBox="0 0 92 49.933" width="920" xmlns="http://www.w3.org/2000/svg" xmlns:xlink="http://www.w3.org/1999/xlink"><style>@keyframes v{0%{transform:translateX(0)}.1%{transform:translateX(-184px)}.2%{transform:translateX(-552px)}5.4%{transform:translateX(-1196px)}8.2%{transform:translateX(-1472px)}8.7%{transform:translateX(-1656px)}14%{transform:translateX(-1840px)}16.5%{transform:translateX(-2392px)}16.8%{transform:translateX(-2576px)}16.9%{transform:translateX(-2760px)}26%{transform:translateX(-3036px)}30.2%{transform:translateX(-3220px)}34%{transform:translateX(-3956px)}34.1%{transform:translateX(-4968px)}34.2%{transform:translateX(-6716px)}40.2%{transform:translateX(-6808px)}42%{transform:translateX(-6900px)}42.1%{transform:translateX(-7912px)}49.4%{transform:translateX(-8004px)}55.2%{transform:translateX(-8096px)}55.4%{transform:translateX(-8188px)}55.7%{transform:translateX(-8464px)}55.9%{transform:translateX(-8648px)}56%{transform:translateX(-8740px)}61.3%{transform:translateX(-9200px)}61.4%{transform:translateX(-9384px)}71.7%{transform:translateX(-9568px)}75%{transform:translateX(-9660px)}75.9%{transform:translateX(-9752px)}77.2%{transform:translateX(-9844px)}77.5%{transform:translateX(-9936px)}77.9%{transform:translateX(-10028px)}78.6%{transform:translateX(-10120px)}80.1%{transform:translateX(-10212px)}81.4%{transform:translateX(-10304px)}82%{transform:translateX(-10396px)}82.3%{transform:translateX(-10488px)}83.9%{transform:translateX(-10580px)}86.2%{transform:translateX(-10948px)}86.3%{transform:translateX(-11040px)}to{transform:translateX(-11224px)}}.a{fill:#181a1b}.c,.d{white-space:pre}.c{fill:#00afff;font-weight:700}.d{fill:#5fd700}.e,.g,.h,.i,.j,.k{fill:#005fd7;white-space:pre}.g,.h,.i,.j,.k{fill:#5f8787}.h,.i,.j,.k{fill:#0087af}.i,.j,.k{fill:#d7af00}.j,.k{fill:#00afff}.k{fill:#f0f0eb;font-weight:700}.l,.m,.n,.p{fill:#87875f;white-space:pre}.m,.n,.p{fill:#3465a4}.n,.p{fill:#555753}.p{fill:#75507b}.q{fill:#f0f0eb}.q,.r,.s,.x,.y{white-space:pre}.r{fill:#c00;font-weight:700}.s,.x,.y{fill:#900}.x,.y{fill:red}.y{fill:#555}</style><g font-family="Monaco,Consolas,Menlo,'Bitstream Vera Sans Mono','Powerline Symbols',monospace" font-size="1.67"><defs><symbol id="1"><text y="1.67" class="c">~</text><text x="2.004" y="1.67" class="d">❯</text></symbol><symbol id="2"><text y="1.67" class="c">~</text><text x="2.004" y="1.67" class="d">❯</text><text x="4.008" y="1.67" class="e">cd</text><text x="7.014" y="1.67" style="white-space:pre" fill="#00afff" text-decoration="underline">src/</text><text x="83.166" y="1.67" class="g">21:21:13</text></symbol><symbol id="3"><text y="1.67" class="c">~</text><text x="1.002" y="1.67" class="h">/</text><text x="2.004" y="1.67" class="c">src</text><text x="6.012" y="1.67" class="d">master</text><text x="13.026" y="1.67" class="i">+1</text><text x="16.032" y="1.67" class="j">?2</text><text x="19.038" y="1.67" class="d">❯</text><text x="83.166" y="1.67" class="g">21:21:15</text></symbol><symbol id="4"><text y="1.67" class="c">~</text><text x="1.002" y="1.67" class="h">/</text><text x="2.004" y="1.67" class="c">src</text><text x="6.012" y="1.67" class="d">master</text><text x="13.026" y="1.67" class="i">+1</text><text x="16.032" y="1.67" class="j">?2</text><text x="19.038" y="1.67" class="d">❯</text><text x="21.042" y="1.67" class="e">tide</text><text x="26.052" y="1.67" class="j">configure</text><text x="83.166" y="1.67" class="g">21:21:15</text></symbol><symbol id="5"><text x="44.088" y="1.67" class="k">Style</text></symbol><symbol id="6"><text y="1.67" class="k">(1)</text><text x="4.008" y="1.67" class="k">Lean</text></symbol><symbol id="7"><text x="89.178" y="1.67" class="l">5s</text></symbol><symbol id="8"><text y="1.67" class="c">~</text><text x="1.002" y="1.67" class="h">/</text><text x="2.004" y="1.67" class="c">src</text><text x="6.012" y="1.67" class="d">master</text><text x="89.178" y="1.67" class="l">5s</text></symbol><symbol id="9"><text y="1.67" class="d">❯</text></symbol><symbol id="10"><text y="1.67" class="k">(2)</text><text x="4.008" y="1.67" class="k">Pure</text></symbol><symbol id="11"><text y="1.67" class="m">~/src</text><text x="6.012" y="1.67" class="n">master</text></symbol><symbol id="12"><text y="1.67" class="m">~/src</text><text x="6.012" y="1.67" class="n">master</text><text x="13.026" y="1.67" style="white-space:pre" fill="#c4a000">5s</text></symbol><symbol id="13"><text y="1.67" class="p">❯</text></symbol><symbol id="14"><text y="1.67" class="q">(r)</text><text x="5.01" y="1.67" class="q">Restart</text><text x="13.026" y="1.67" class="q">from</text><text x="18.036" y="1.67" class="q">the</text><text x="22.044" y="1.67" class="q">beginning</text></symbol><symbol id="15"><text y="1.67" class="q">(q)</text><text x="5.01" y="1.67" class="q">Quit</text><text x="10.02" y="1.67" class="q">and</text><text x="14.028" y="1.67" class="q">do</text><text x="17.034" y="1.67" class="q">nothing</text></symbol><symbol id="16"><text y="1.67" class="k">Choice</text><text x="7.014" y="1.67" class="k">[1/2/r/q]</text><text x="17.034" y="1.67" class="q">2</text></symbol><symbol id="17"><text x="27.054" y="1.67" class="r">Overwrite</text><text x="37.074" y="1.67" class="r">tide</text><text x="42.084" y="1.67" class="r">config</text><text x="49.098" y="1.67" class="r">and</text><text x="53.106" y="1.67" class="r">fish_prompt?</text></symbol><symbol id="18"><text y="1.67" class="k">(y)</text><text x="4.008" y="1.67" class="k">Yes</text></symbol><symbol id="19"><text y="1.67" class="k">(n)</text><text x="4.008" y="1.67" class="k">No</text></symbol><symbol id="20"><text y="1.67" class="k">Choice</text><text x="7.014" y="1.67" class="k">[y/n]</text><text x="13.026" y="1.67" class="q">y</text></symbol><symbol id="21"><text y="1.67" class="q">string</text><text x="7.014" y="1.67" class="q">replace:</text><text x="16.032" y="1.67" class="q">Expected</text><text x="25.05" y="1.67" class="q">at</text><text x="28.056" y="1.67" class="q">least</text><text x="34.068" y="1.67" class="q">2</text><text x="36.072" y="1.67" class="q">args,</text><text x="42.084" y="1.67" class="q">got</text><text x="46.092" y="1.67" class="q">1</text></symbol><symbol id="22"><text y="1.67" class="m">~/src</text><text x="6.012" y="1.67" class="n">master*</text></symbol><symbol id="23"><text y="1.67" class="p">❯</text><text x="2.004" y="1.67" class="s">#Super</text></symbol><symbol id="24"><text y="1.67" class="p">❯</text><text x="2.004" y="1.67" class="s">#Super</text><text x="9.018" y="1.67" class="s">Pure!</text></symbol><symbol id="a"><path fill="transparent" d="M0 0h92v23H0z"/></symbol><symbol id="b"><path fill="#fff" d="M0 0h1.102v2.171H0z"/></symbol></defs><path class="a" d="M0 0h92v49.933H0z"/><g style="animation-duration:13.749602s;animation-iteration-count:infinite;animation-name:v;animation-timing-function:steps(1,end)"><svg width="11316"><svg><use xlink:href="#a"/><use xlink:href="#b" x="-.004"/></svg><svg x="92"><use xlink:href="#a"/><use xlink:href="#b" x="-.004"/></svg><svg x="184"><use xlink:href="#a"/><use xlink:href="#b" x="-.004"/></svg><svg x="276"><use xlink:href="#a"/><use xlink:href="#b" x="-.004"/></svg><svg x="368"><use xlink:href="#a"/><use xlink:href="#b" x="-.004"/></svg><svg x="460"><use xlink:href="#a"/><use xlink:href="#b" x="-.004"/></svg><svg x="552"><use xlink:href="#a"/><use xlink:href="#b" x="3.996" y="2.146"/><use xlink:href="#1" y="2.171"/></svg><svg x="644"><use xlink:href="#a"/><use xlink:href="#b" x="-.004" y="4.317"/><use xlink:href="#1" y="2.171"/></svg><svg x="736"><use xlink:href="#a"/><use xlink:href="#b" x="-.004" y="4.317"/><use xlink:href="#1" y="2.171"/></svg><svg x="828"><use xlink:href="#a"/><use xlink:href="#b" x="-.004" y="4.317"/><use xlink:href="#1" y="2.171"/></svg><svg x="920"><use xlink:href="#a"/><use xlink:href="#b" x="-.004" y="4.317"/><use xlink:href="#1" y="2.171"/></svg><svg x="1012"><use xlink:href="#a"/><use xlink:href="#b" x="-.004" y="4.317"/><use xlink:href="#1" y="2.171"/></svg><svg x="1104"><use xlink:href="#a"/><use xlink:href="#b" x="-.004" y="4.317"/><use xlink:href="#1" y="2.171"/></svg><svg x="1196"><use xlink:href="#a"/><use xlink:href="#b" x="3.996" y="6.488"/><use xlink:href="#1" y="2.171"/><text y="8.183" class="c">~</text><text x="2.004" y="8.183" class="d">❯</text><text x="83.166" y="8.183" class="g">21:21:13</text></svg><svg x="1288"><use xlink:href="#a"/><use xlink:href="#b" x="4.996" y="6.488"/><use xlink:href="#1" y="2.171"/><text y="8.183" class="c">~</text><text x="2.004" y="8.183" class="d">❯</text><text x="4.008" y="8.183" class="q">c</text><text x="83.166" y="8.183" class="g">21:21:13</text></svg><svg x="1380"><use xlink:href="#a"/><use xlink:href="#b" x="4.996" y="6.488"/><use xlink:href="#1" y="2.171"/><text y="8.183" class="c">~</text><text x="2.004" y="8.183" class="d">❯</text><text x="4.008" y="8.183" class="x">c</text><text x="83.166" y="8.183" class="g">21:21:13</text></svg><svg x="1472"><use xlink:href="#a"/><use xlink:href="#b" x="4.996" y="6.488"/><use xlink:href="#1" y="2.171"/><text y="8.183" class="c">~</text><text x="2.004" y="8.183" class="d">❯</text><text x="4.008" y="8.183" class="x">c</text><text x="5.01" y="8.183" class="y">lear</text><text x="83.166" y="8.183" class="g">21:21:13</text></svg><svg x="1564"><use xlink:href="#a"/><use xlink:href="#b" x="5.996" y="6.488"/><use xlink:href="#1" y="2.171"/><text y="8.183" class="c">~</text><text x="2.004" y="8.183" class="d">❯</text><text x="4.008" y="8.183" class="x">cd</text><text x="83.166" y="8.183" class="g">21:21:13</text></svg><svg x="1656"><use xlink:href="#a"/><use xlink:href="#b" x="5.996" y="6.488"/><use xlink:href="#1" y="2.171"/><text y="8.183" class="c">~</text><text x="2.004" y="8.183" class="d">❯</text><text x="4.008" y="8.183" class="e">cd</text><text x="7.014" y="8.183" class="y">src/</text><text x="83.166" y="8.183" class="g">21:21:13</text></svg><svg x="1748"><use xlink:href="#a"/><use xlink:href="#b" x="10.996" y="6.488"/><use xlink:href="#1" y="2.171"/><text y="8.183" class="c">~</text><text x="2.004" y="8.183" class="d">❯</text><text x="4.008" y="8.183" class="e">cd</text><text x="7.014" y="8.183" class="e">src/</text><text x="83.166" y="8.183" class="g">21:21:13</text></svg><svg x="1840"><use xlink:href="#a"/><use xlink:href="#b" x="10.996" y="6.488"/><use xlink:href="#1" y="2.171"/><use xlink:href="#2" y="6.513"/></svg><svg x="1932"><use xlink:href="#a"/><use xlink:href="#b" x="-.004" y="8.659"/><use xlink:href="#1" y="2.171"/><use xlink:href="#2" y="6.513"/></svg><svg x="2024"><use xlink:href="#a"/><use xlink:href="#b" x="-.004" y="8.659"/><use xlink:href="#1" y="2.171"/><use xlink:href="#2" y="6.513"/></svg><svg x="2116"><use xlink:href="#a"/><use xlink:href="#b" x="-.004" y="8.659"/><use xlink:href="#1" y="2.171"/><use xlink:href="#2" y="6.513"/></svg><svg x="2208"><use xlink:href="#a"/><use xlink:href="#b" x="-.004" y="8.659"/><use xlink:href="#1" y="2.171"/><use xlink:href="#2" y="6.513"/></svg><svg x="2300"><use xlink:href="#a"/><use xlink:href="#b" x="-.004" y="8.659"/><use xlink:href="#1" y="2.171"/><use xlink:href="#2" y="6.513"/></svg><svg x="2392"><use xlink:href="#a"/><use xlink:href="#b" x="-.004" y="8.659"/><use xlink:href="#1" y="2.171"/><use xlink:href="#2" y="6.513"/></svg><svg x="2484"><use xlink:href="#a"/><use xlink:href="#b" x="-.004" y="8.659"/><use xlink:href="#1" y="2.171"/><use xlink:href="#2" y="6.513"/></svg><svg x="2576"><use xlink:href="#a"/><use xlink:href="#b" x="20.996" y="10.83"/><use xlink:href="#1" y="2.171"/><use xlink:href="#2" y="6.513"/><use xlink:href="#3" y="10.855"/></svg><svg x="2668"><use xlink:href="#a"/><use xlink:href="#b" x="-.004" y="10.83"/><use xlink:href="#1" y="2.171"/><use xlink:href="#2" y="6.513"/><use xlink:href="#3" y="10.855"/></svg><svg x="2760"><use xlink:href="#a"/><use xlink:href="#b" x="20.996" y="10.83"/><use xlink:href="#1" y="2.171"/><use xlink:href="#2" y="6.513"/><use xlink:href="#3" y="10.855"/></svg><svg x="2852"><use xlink:href="#a"/><use xlink:href="#b" x="21.996" y="10.83"/><use xlink:href="#1" y="2.171"/><use xlink:href="#2" y="6.513"/><text y="12.525" class="c">~</text><text x="1.002" y="12.525" class="h">/</text><text x="2.004" y="12.525" class="c">src</text><text x="6.012" y="12.525" class="d">master</text><text x="13.026" y="12.525" class="i">+1</text><text x="16.032" y="12.525" class="j">?2</text><text x="19.038" y="12.525" class="d">❯</text><text x="21.042" y="12.525" class="q">t</text><text x="83.166" y="12.525" class="g">21:21:15</text></svg><svg x="2944"><use xlink:href="#a"/><use xlink:href="#b" x="21.996" y="10.83"/><use xlink:href="#1" y="2.171"/><use xlink:href="#2" y="6.513"/><text y="12.525" class="c">~</text><text x="1.002" y="12.525" class="h">/</text><text x="2.004" y="12.525" class="c">src</text><text x="6.012" y="12.525" class="d">master</text><text x="13.026" y="12.525" class="i">+1</text><text x="16.032" y="12.525" class="j">?2</text><text x="19.038" y="12.525" class="d">❯</text><text x="21.042" y="12.525" class="x">t</text><text x="83.166" y="12.525" class="g">21:21:15</text></svg><svg x="3036"><use xlink:href="#a"/><use xlink:href="#b" x="21.996" y="10.83"/><use xlink:href="#1" y="2.171"/><use xlink:href="#2" y="6.513"/><text y="12.525" class="c">~</text><text x="1.002" y="12.525" class="h">/</text><text x="2.004" y="12.525" class="c">src</text><text x="6.012" y="12.525" class="d">master</text><text x="13.026" y="12.525" class="i">+1</text><text x="16.032" y="12.525" class="j">?2</text><text x="19.038" y="12.525" class="d">❯</text><text x="21.042" y="12.525" class="x">t</text><text x="22.044" y="12.525" class="y">ide</text><text x="26.052" y="12.525" class="y">configure</text><text x="83.166" y="12.525" class="g">21:21:15</text></svg><svg x="3128"><use xlink:href="#a"/><use xlink:href="#b" x="34.996" y="10.83"/><use xlink:href="#1" y="2.171"/><use xlink:href="#2" y="6.513"/><text y="12.525" class="c">~</text><text x="1.002" y="12.525" class="h">/</text><text x="2.004" y="12.525" class="c">src</text><text x="6.012" y="12.525" class="d">master</text><text x="13.026" y="12.525" class="i">+1</text><text x="16.032" y="12.525" class="j">?2</text><text x="19.038" y="12.525" class="d">❯</text><text x="21.042" y="12.525" class="x">tide</text><text x="26.052" y="12.525" class="x">configure</text><text x="83.166" y="12.525" class="g">21:21:15</text></svg><svg x="3220"><use xlink:href="#a"/><use xlink:href="#b" x="34.996" y="10.83"/><use xlink:href="#1" y="2.171"/><use xlink:href="#2" y="6.513"/><use xlink:href="#4" y="10.855"/></svg><svg x="3312"><use xlink:href="#a"/><use xlink:href="#b" x="-.004" y="13.001"/><use xlink:href="#1" y="2.171"/><use xlink:href="#2" y="6.513"/><use xlink:href="#4" y="10.855"/></svg><svg x="3404"><use xlink:href="#a"/><use xlink:href="#b" x="-.004" y="13.001"/><use xlink:href="#1" y="2.171"/><use xlink:href="#2" y="6.513"/><use xlink:href="#4" y="10.855"/></svg><svg x="3496"><use xlink:href="#a"/><use xlink:href="#b" x="-.004" y="13.001"/><use xlink:href="#1" y="2.171"/><use xlink:href="#2" y="6.513"/><use xlink:href="#4" y="10.855"/></svg><svg x="3588"><use xlink:href="#a"/><use xlink:href="#b" x="-.004" y="13.001"/><use xlink:href="#1" y="2.171"/><use xlink:href="#2" y="6.513"/><use xlink:href="#4" y="10.855"/></svg><svg x="3680"><use xlink:href="#a"/><use xlink:href="#b" x="-.004"/></svg><svg x="3772"><use xlink:href="#a"/><use xlink:href="#b" x="-.004" y="2.146"/><use xlink:href="#5"/></svg><svg x="3864"><use xlink:href="#a"/><use xlink:href="#b" x="-.004" y="2.146"/><use xlink:href="#5"/></svg><svg x="3956"><use xlink:href="#a"/><use xlink:href="#b" x="-.004" y="4.317"/><use xlink:href="#5"/><use xlink:href="#6" y="2.171"/></svg><svg x="4048"><use xlink:href="#a"/><use xlink:href="#b" x="-.004" y="4.317"/><use xlink:href="#5"/><use xlink:href="#6" y="2.171"/></svg><svg x="4140"><use xlink:href="#a"/><use xlink:href="#b" x="91.996" y="4.317"/><use xlink:href="#5"/><use xlink:href="#6" y="2.171"/></svg><svg x="4232"><use xlink:href="#a"/><use xlink:href="#b" x="-.004" y="4.317"/><use xlink:href="#5"/><use xlink:href="#6" y="2.171"/></svg><svg x="4324"><use xlink:href="#a"/><use xlink:href="#b" x="87.996" y="4.317"/><use xlink:href="#5"/><use xlink:href="#6" y="2.171"/></svg><svg x="4416"><use xlink:href="#a"/><use xlink:href="#b" x="-.004" y="6.488"/><use xlink:href="#5"/><use xlink:href="#6" y="2.171"/><use xlink:href="#7" y="4.342"/></svg><svg x="4508"><use xlink:href="#a"/><use xlink:href="#b" x="-.004" y="4.317"/><use xlink:href="#5"/><use xlink:href="#6" y="2.171"/><use xlink:href="#7" y="4.342"/></svg><svg x="4600"><use xlink:href="#a"/><use xlink:href="#b" x="5.996" y="4.317"/><use xlink:href="#5"/><use xlink:href="#6" y="2.171"/><text y="6.012" class="c">~</text><text x="1.002" y="6.012" class="h">/</text><text x="2.004" y="6.012" class="c">src</text><text x="89.178" y="6.012" class="l">5s</text></svg><svg x="4692"><use xlink:href="#a"/><use xlink:href="#b" x="12.996" y="4.317"/><use xlink:href="#5"/><use xlink:href="#6" y="2.171"/><use xlink:href="#8" y="4.342"/></svg><svg x="4784"><use xlink:href="#a"/><use xlink:href="#b" x="-.004" y="6.488"/><use xlink:href="#5"/><use xlink:href="#6" y="2.171"/><use xlink:href="#8" y="4.342"/></svg><svg x="4876"><use xlink:href="#a"/><use xlink:href="#b" x="-.004" y="10.83"/><use xlink:href="#5"/><use xlink:href="#6" y="2.171"/><use xlink:href="#8" y="4.342"/><use xlink:href="#9" y="6.513"/></svg><svg x="4968"><use xlink:href="#a"/><use xlink:href="#b" x="-.004" y="13.001"/><use xlink:href="#5"/><use xlink:href="#6" y="2.171"/><use xlink:href="#8" y="4.342"/><use xlink:href="#9" y="6.513"/><use xlink:href="#10" y="10.855"/></svg><svg x="5060"><use xlink:href="#a"/><use xlink:href="#b" x="-.004" y="13.001"/><use xlink:href="#5"/><use xlink:href="#6" y="2.171"/><use xlink:href="#8" y="4.342"/><use xlink:href="#9" y="6.513"/><use xlink:href="#10" y="10.855"/></svg><svg x="5152"><use xlink:href="#a"/><use xlink:href="#b" x="91.996" y="13.001"/><use xlink:href="#5"/><use xlink:href="#6" y="2.171"/><use xlink:href="#8" y="4.342"/><use xlink:href="#9" y="6.513"/><use xlink:href="#10" y="10.855"/></svg><svg x="5244"><use xlink:href="#a"/><use xlink:href="#b" x="-.004" y="13.001"/><use xlink:href="#5"/><use xlink:href="#6" y="2.171"/><use xlink:href="#8" y="4.342"/><use xlink:href="#9" y="6.513"/><use xlink:href="#10" y="10.855"/></svg><svg x="5336"><use xlink:href="#a"/><use xlink:href="#b" x="90.996" y="15.172"/><use xlink:href="#5"/><use xlink:href="#6" y="2.171"/><use xlink:href="#8" y="4.342"/><use xlink:href="#9" y="6.513"/><use xlink:href="#10" y="10.855"/></svg><svg x="5428"><use xlink:href="#a"/><use xlink:href="#b" x="-.004" y="13.001"/><use xlink:href="#5"/><use xlink:href="#6" y="2.171"/><use xlink:href="#8" y="4.342"/><use xlink:href="#9" y="6.513"/><use xlink:href="#10" y="10.855"/></svg><svg x="5520"><use xlink:href="#a"/><use xlink:href="#b" x="5.996" y="13.001"/><use xlink:href="#5"/><use xlink:href="#6" y="2.171"/><use xlink:href="#8" y="4.342"/><use xlink:href="#9" y="6.513"/><use xlink:href="#10" y="10.855"/><text y="14.696" class="m">~/src</text></svg><svg x="5612"><use xlink:href="#a"/><use xlink:href="#b" x="12.996" y="13.001"/><use xlink:href="#5"/><use xlink:href="#6" y="2.171"/><use xlink:href="#8" y="4.342"/><use xlink:href="#9" y="6.513"/><use xlink:href="#10" y="10.855"/><use xlink:href="#11" y="13.026"/></svg><svg x="5704"><use xlink:href="#a"/><use xlink:href="#b" x="12.996" y="13.001"/><use xlink:href="#5"/><use xlink:href="#6" y="2.171"/><use xlink:href="#8" y="4.342"/><use xlink:href="#9" y="6.513"/><use xlink:href="#10" y="10.855"/><use xlink:href="#11" y="13.026"/></svg><svg x="5796"><use xlink:href="#a"/><use xlink:href="#b" x="15.996" y="13.001"/><use xlink:href="#5"/><use xlink:href="#6" y="2.171"/><use xlink:href="#8" y="4.342"/><use xlink:href="#9" y="6.513"/><use xlink:href="#10" y="10.855"/><use xlink:href="#12" y="13.026"/></svg><svg x="5888"><use xlink:href="#a"/><use xlink:href="#b" x="15.996" y="13.001"/><use xlink:href="#5"/><use xlink:href="#6" y="2.171"/><use xlink:href="#8" y="4.342"/><use xlink:href="#9" y="6.513"/><use xlink:href="#10" y="10.855"/><use xlink:href="#12" y="13.026"/></svg><svg x="5980"><use xlink:href="#a"/><use xlink:href="#b" x="-.004" y="15.172"/><use xlink:href="#5"/><use xlink:href="#6" y="2.171"/><use xlink:href="#8" y="4.342"/><use xlink:href="#9" y="6.513"/><use xlink:href="#10" y="10.855"/><use xlink:href="#12" y="13.026"/></svg><svg x="6072"><use xlink:href="#a"/><use xlink:href="#b" x="-.004" y="15.172"/><use xlink:href="#5"/><use xlink:href="#6" y="2.171"/><use xlink:href="#8" y="4.342"/><use xlink:href="#9" y="6.513"/><use xlink:href="#10" y="10.855"/><use xlink:href="#12" y="13.026"/></svg><svg x="6164"><use xlink:href="#a"/><use xlink:href="#b" x="1.996" y="15.172"/><use xlink:href="#5"/><use xlink:href="#6" y="2.171"/><use xlink:href="#8" y="4.342"/><use xlink:href="#9" y="6.513"/><use xlink:href="#10" y="10.855"/><use xlink:href="#12" y="13.026"/><use xlink:href="#13" y="15.197"/></svg><svg x="6256"><use xlink:href="#a"/><use xlink:href="#b" x="-.004" y="28.198"/><use xlink:href="#5"/><use xlink:href="#6" y="2.171"/><use xlink:href="#8" y="4.342"/><use xlink:href="#9" y="6.513"/><use xlink:href="#10" y="10.855"/><use xlink:href="#12" y="13.026"/><use xlink:href="#13" y="15.197"/><use xlink:href="#14" y="19.539"/><use xlink:href="#15" y="23.881"/></svg><svg x="6348"><use xlink:href="#a"/><use xlink:href="#b" x="-.004" y="28.198"/><use xlink:href="#5"/><use xlink:href="#6" y="2.171"/><use xlink:href="#8" y="4.342"/><use xlink:href="#9" y="6.513"/><use xlink:href="#10" y="10.855"/><use xlink:href="#12" y="13.026"/><use xlink:href="#13" y="15.197"/><use xlink:href="#14" y="19.539"/><use xlink:href="#15" y="23.881"/></svg><svg x="6440"><use xlink:href="#a"/><use xlink:href="#b" x="-.004" y="28.198"/><use xlink:href="#5"/><use xlink:href="#6" y="2.171"/><use xlink:href="#8" y="4.342"/><use xlink:href="#9" y="6.513"/><use xlink:href="#10" y="10.855"/><use xlink:href="#12" y="13.026"/><use xlink:href="#13" y="15.197"/><use xlink:href="#14" y="19.539"/><use xlink:href="#15" y="23.881"/></svg><svg x="6532"><use xlink:href="#a"/><use xlink:href="#b" x="-.004" y="28.198"/><use xlink:href="#5"/><use xlink:href="#6" y="2.171"/><use xlink:href="#8" y="4.342"/><use xlink:href="#9" y="6.513"/><use xlink:href="#10" y="10.855"/><use xlink:href="#12" y="13.026"/><use xlink:href="#13" y="15.197"/><use xlink:href="#14" y="19.539"/><use xlink:href="#15" y="23.881"/></svg><svg x="6624"><use xlink:href="#a"/><use xlink:href="#b" x="-.004" y="28.198"/><use xlink:href="#5"/><use xlink:href="#6" y="2.171"/><use xlink:href="#8" y="4.342"/><use xlink:href="#9" y="6.513"/><use xlink:href="#10" y="10.855"/><use xlink:href="#12" y="13.026"/><use xlink:href="#13" y="15.197"/><use xlink:href="#14" y="19.539"/><use xlink:href="#15" y="23.881"/></svg><svg x="6716"><use xlink:href="#a"/><use xlink:href="#b" x="16.996" y="28.198"/><use xlink:href="#5"/><use xlink:href="#6" y="2.171"/><use xlink:href="#8" y="4.342"/><use xlink:href="#9" y="6.513"/><use xlink:href="#10" y="10.855"/><use xlink:href="#12" y="13.026"/><use xlink:href="#13" y="15.197"/><use xlink:href="#14" y="19.539"/><use xlink:href="#15" y="23.881"/><text y="29.893" class="k">Choice</text><text x="7.014" y="29.893" class="k">[1/2/r/q]</text></svg><svg x="6808"><use xlink:href="#a"/><use xlink:href="#b" x="17.996" y="28.198"/><use xlink:href="#5"/><use xlink:href="#6" y="2.171"/><use xlink:href="#8" y="4.342"/><use xlink:href="#9" y="6.513"/><use xlink:href="#10" y="10.855"/><use xlink:href="#12" y="13.026"/><use xlink:href="#13" y="15.197"/><use xlink:href="#14" y="19.539"/><use xlink:href="#15" y="23.881"/><use xlink:href="#16" y="28.223"/></svg><svg x="6900"><use xlink:href="#a"/><use xlink:href="#b" x="-.004" y="30.369"/><use xlink:href="#5"/><use xlink:href="#6" y="2.171"/><use xlink:href="#8" y="4.342"/><use xlink:href="#9" y="6.513"/><use xlink:href="#10" y="10.855"/><use xlink:href="#12" y="13.026"/><use xlink:href="#13" y="15.197"/><use xlink:href="#14" y="19.539"/><use xlink:href="#15" y="23.881"/><use xlink:href="#16" y="28.223"/></svg><svg x="6992"><use xlink:href="#a"/><use xlink:href="#b" x="-.004" y="30.369"/><use xlink:href="#5"/><use xlink:href="#6" y="2.171"/><use xlink:href="#8" y="4.342"/><use xlink:href="#9" y="6.513"/><use xlink:href="#10" y="10.855"/><use xlink:href="#12" y="13.026"/><use xlink:href="#13" y="15.197"/><use xlink:href="#14" y="19.539"/><use xlink:href="#15" y="23.881"/><use xlink:href="#16" y="28.223"/></svg><svg x="7084"><use xlink:href="#a"/><use xlink:href="#b" x="-.004"/></svg><svg x="7176"><use xlink:href="#a"/><use xlink:href="#b" x="26.996"/></svg><svg x="7268"><use xlink:href="#a"/><use xlink:href="#b" x="26.996"/></svg><svg x="7360"><use xlink:href="#a"/><use xlink:href="#b" x="-.004" y="2.146"/><use xlink:href="#17"/></svg><svg x="7452"><use xlink:href="#a"/><use xlink:href="#b" x="-.004" y="8.659"/><use xlink:href="#17"/><use xlink:href="#18" y="2.171"/></svg><svg x="7544"><use xlink:href="#a"/><use xlink:href="#b" x="-.004" y="15.172"/><use xlink:href="#17"/><use xlink:href="#18" y="2.171"/><use xlink:href="#19" y="8.684"/></svg><svg x="7636"><use xlink:href="#a"/><use xlink:href="#b" x="-.004" y="15.172"/><use xlink:href="#17"/><use xlink:href="#18" y="2.171"/><use xlink:href="#19" y="8.684"/></svg><svg x="7728"><use xlink:href="#a"/><use xlink:href="#b" x="-.004" y="15.172"/><use xlink:href="#17"/><use xlink:href="#18" y="2.171"/><use xlink:href="#19" y="8.684"/></svg><svg x="7820"><use xlink:href="#a"/><use xlink:href="#b" x="-.004" y="15.172"/><use xlink:href="#17"/><use xlink:href="#18" y="2.171"/><use xlink:href="#19" y="8.684"/></svg><svg x="7912"><use xlink:href="#a"/><use xlink:href="#b" x="12.996" y="15.172"/><use xlink:href="#17"/><use xlink:href="#18" y="2.171"/><use xlink:href="#19" y="8.684"/><text y="16.867" class="k">Choice</text><text x="7.014" y="16.867" class="k">[y/n]</text></svg><svg x="8004"><use xlink:href="#a"/><use xlink:href="#b" x="13.996" y="15.172"/><use xlink:href="#17"/><use xlink:href="#18" y="2.171"/><use xlink:href="#19" y="8.684"/><use xlink:href="#20" y="15.197"/></svg><svg x="8096"><use xlink:href="#a"/><use xlink:href="#b" x="-.004" y="17.343"/><use xlink:href="#17"/><use xlink:href="#18" y="2.171"/><use xlink:href="#19" y="8.684"/><use xlink:href="#20" y="15.197"/></svg><svg x="8188"><use xlink:href="#a"/><use xlink:href="#b" x="-.004" y="19.514"/><use xlink:href="#17"/><use xlink:href="#18" y="2.171"/><use xlink:href="#19" y="8.684"/><use xlink:href="#20" y="15.197"/><use xlink:href="#21" y="17.368"/></svg><svg x="8280"><use xlink:href="#a"/><use xlink:href="#b" x="-.004" y="19.514"/><use xlink:href="#17"/><use xlink:href="#18" y="2.171"/><use xlink:href="#19" y="8.684"/><use xlink:href="#20" y="15.197"/><use xlink:href="#21" y="17.368"/></svg><svg x="8372"><use xlink:href="#a"/><use xlink:href="#b" x="-.004"/></svg><svg x="8464"><use xlink:href="#a"/><use xlink:href="#b" x="-.004"/></svg><svg x="8556"><use xlink:href="#a"/><use xlink:href="#b" x="-.004"/></svg><svg x="8648"><use xlink:href="#a"/><use xlink:href="#b" x="1.996" y="4.317"/><use xlink:href="#22" y="2.171"/><use xlink:href="#13" y="4.342"/></svg><svg x="8740"><use xlink:href="#a"/><use xlink:href="#b" x="1.996" y="4.317"/><use xlink:href="#22" y="2.171"/><use xlink:href="#13" y="4.342"/></svg><svg x="8832"><use xlink:href="#a"/><use xlink:href="#b" x="-.004" y="6.488"/><use xlink:href="#22" y="2.171"/><use xlink:href="#13" y="4.342"/></svg><svg x="8924"><use xlink:href="#a"/><use xlink:href="#b" x="-.004" y="6.488"/><use xlink:href="#22" y="2.171"/><use xlink:href="#13" y="4.342"/></svg><svg x="9016"><use xlink:href="#a"/><use xlink:href="#b" x="-.004" y="6.488"/><use xlink:href="#22" y="2.171"/><use xlink:href="#13" y="4.342"/></svg><svg x="9108"><use xlink:href="#a"/><use xlink:href="#b" x="-.004" y="6.488"/><use xlink:href="#22" y="2.171"/><use xlink:href="#13" y="4.342"/></svg><svg x="9200"><use xlink:href="#a"/><use xlink:href="#b" x="-.004" y="6.488"/><use xlink:href="#22" y="2.171"/><use xlink:href="#13" y="4.342"/></svg><svg x="9292"><use xlink:href="#a"/><use xlink:href="#b" x="-.004" y="6.488"/><use xlink:href="#22" y="2.171"/><use xlink:href="#13" y="4.342"/></svg><svg x="9384"><use xlink:href="#a"/><use xlink:href="#b" x="1.996" y="10.83"/><use xlink:href="#22" y="2.171"/><use xlink:href="#13" y="4.342"/><use xlink:href="#22" y="8.684"/><use xlink:href="#13" y="10.855"/></svg><svg x="9476"><use xlink:href="#a"/><use xlink:href="#b" x="2.996" y="10.83"/><use xlink:href="#22" y="2.171"/><use xlink:href="#13" y="4.342"/><use xlink:href="#22" y="8.684"/><text y="12.525" class="p">❯</text><text x="2.004" y="12.525" class="q">#</text></svg><svg x="9568"><use xlink:href="#a"/><use xlink:href="#b" x="2.996" y="10.83"/><use xlink:href="#22" y="2.171"/><use xlink:href="#13" y="4.342"/><use xlink:href="#22" y="8.684"/><text y="12.525" class="p">❯</text><text x="2.004" y="12.525" class="s">#</text></svg><svg x="9660"><use xlink:href="#a"/><use xlink:href="#b" x="3.996" y="10.83"/><use xlink:href="#22" y="2.171"/><use xlink:href="#13" y="4.342"/><use xlink:href="#22" y="8.684"/><text y="12.525" class="p">❯</text><text x="2.004" y="12.525" class="s">#S</text></svg><svg x="9752"><use xlink:href="#a"/><use xlink:href="#b" x="4.996" y="10.83"/><use xlink:href="#22" y="2.171"/><use xlink:href="#13" y="4.342"/><use xlink:href="#22" y="8.684"/><text y="12.525" class="p">❯</text><text x="2.004" y="12.525" class="s">#Su</text></svg><svg x="9844"><use xlink:href="#a"/><use xlink:href="#b" x="5.996" y="10.83"/><use xlink:href="#22" y="2.171"/><use xlink:href="#13" y="4.342"/><use xlink:href="#22" y="8.684"/><text y="12.525" class="p">❯</text><text x="2.004" y="12.525" class="s">#Sup</text></svg><svg x="9936"><use xlink:href="#a"/><use xlink:href="#b" x="6.996" y="10.83"/><use xlink:href="#22" y="2.171"/><use xlink:href="#13" y="4.342"/><use xlink:href="#22" y="8.684"/><text y="12.525" class="p">❯</text><text x="2.004" y="12.525" class="s">#Supe</text></svg><svg x="10028"><use xlink:href="#a"/><use xlink:href="#b" x="7.996" y="10.83"/><use xlink:href="#22" y="2.171"/><use xlink:href="#13" y="4.342"/><use xlink:href="#22" y="8.684"/><use xlink:href="#23" y="10.855"/></svg><svg x="10120"><use xlink:href="#a"/><use xlink:href="#b" x="8.996" y="10.83"/><use xlink:href="#22" y="2.171"/><use xlink:href="#13" y="4.342"/><use xlink:href="#22" y="8.684"/><use xlink:href="#23" y="10.855"/></svg><svg x="10212"><use xlink:href="#a"/><use xlink:href="#b" x="9.996" y="10.83"/><use xlink:href="#22" y="2.171"/><use xlink:href="#13" y="4.342"/><use xlink:href="#22" y="8.684"/><text y="12.525" class="p">❯</text><text x="2.004" y="12.525" class="s">#Super</text><text x="9.018" y="12.525" class="s">P</text></svg><svg x="10304"><use xlink:href="#a"/><use xlink:href="#b" x="10.996" y="10.83"/><use xlink:href="#22" y="2.171"/><use xlink:href="#13" y="4.342"/><use xlink:href="#22" y="8.684"/><text y="12.525" class="p">❯</text><text x="2.004" y="12.525" class="s">#Super</text><text x="9.018" y="12.525" class="s">Pu</text></svg><svg x="10396"><use xlink:href="#a"/><use xlink:href="#b" x="11.996" y="10.83"/><use xlink:href="#22" y="2.171"/><use xlink:href="#13" y="4.342"/><use xlink:href="#22" y="8.684"/><text y="12.525" class="p">❯</text><text x="2.004" y="12.525" class="s">#Super</text><text x="9.018" y="12.525" class="s">Pur</text></svg><svg x="10488"><use xlink:href="#a"/><use xlink:href="#b" x="12.996" y="10.83"/><use xlink:href="#22" y="2.171"/><use xlink:href="#13" y="4.342"/><use xlink:href="#22" y="8.684"/><text y="12.525" class="p">❯</text><text x="2.004" y="12.525" class="s">#Super</text><text x="9.018" y="12.525" class="s">Pure</text></svg><svg x="10580"><use xlink:href="#a"/><use xlink:href="#b" x="13.996" y="10.83"/><use xlink:href="#22" y="2.171"/><use xlink:href="#13" y="4.342"/><use xlink:href="#22" y="8.684"/><use xlink:href="#24" y="10.855"/></svg><svg x="10672"><use xlink:href="#a"/><use xlink:href="#b" x="-.004" y="13.001"/><use xlink:href="#22" y="2.171"/><use xlink:href="#13" y="4.342"/><use xlink:href="#22" y="8.684"/><use xlink:href="#24" y="10.855"/></svg><svg x="10764"><use xlink:href="#a"/><use xlink:href="#b" x="-.004" y="13.001"/><use xlink:href="#22" y="2.171"/><use xlink:href="#13" y="4.342"/><use xlink:href="#22" y="8.684"/><use xlink:href="#24" y="10.855"/></svg><svg x="10856"><use xlink:href="#a"/><use xlink:href="#b" x="-.004" y="13.001"/><use xlink:href="#22" y="2.171"/><use xlink:href="#13" y="4.342"/><use xlink:href="#22" y="8.684"/><use xlink:href="#24" y="10.855"/></svg><svg x="10948"><use xlink:href="#a"/><use xlink:href="#b" x="-.004" y="13.001"/><use xlink:href="#22" y="2.171"/><use xlink:href="#13" y="4.342"/><use xlink:href="#22" y="8.684"/><use xlink:href="#24" y="10.855"/></svg><svg x="11040"><use xlink:href="#a"/><use xlink:href="#b" x="1.996" y="17.343"/><use xlink:href="#22" y="2.171"/><use xlink:href="#13" y="4.342"/><use xlink:href="#22" y="8.684"/><use xlink:href="#24" y="10.855"/><use xlink:href="#22" y="15.197"/><use xlink:href="#13" y="17.368"/></svg><svg x="11132"><use xlink:href="#a"/><use xlink:href="#b" x="-.004" y="19.514"/><use xlink:href="#22" y="2.171"/><use xlink:href="#13" y="4.342"/><use xlink:href="#22" y="8.684"/><use xlink:href="#24" y="10.855"/><use xlink:href="#22" y="15.197"/><use xlink:href="#13" y="17.368"/></svg><svg x="11224"><use xlink:href="#a"/><use xlink:href="#b" x="-.004" y="19.514"/><use xlink:href="#22" y="2.171"/><use xlink:href="#13" y="4.342"/><use xlink:href="#22" y="8.684"/><use xlink:href="#24" y="10.855"/><use xlink:href="#22" y="15.197"/><use xlink:href="#13" y="17.368"/></svg></svg></g></g></svg></svg>