<svg xmlns="http://www.w3.org/2000/svg" xmlns:xlink="http://www.w3.org/1999/xlink" width="930" height="607.88"><rect width="930" height="607.88" rx="0" ry="0" class="a"/><svg height="607.88" viewBox="0 0 93 60.788" width="930" xmlns="http://www.w3.org/2000/svg" xmlns:xlink="http://www.w3.org/1999/xlink"><style>@keyframes x{0%{transform:translateX(0)}.1%{transform:translateX(-186px)}.2%{transform:translateX(-558px)}4.1%{transform:translateX(-744px)}4.4%{transform:translateX(-1023px)}6.7%{transform:translateX(-1209px)}11.1%{transform:translateX(-1767px)}11.3%{transform:translateX(-1953px)}11.4%{transform:translateX(-2139px)}15.5%{transform:translateX(-2511px)}15.6%{transform:translateX(-2697px)}15.8%{transform:translateX(-2883px)}21.2%{transform:translateX(-3162px)}22.1%{transform:translateX(-3348px)}25.4%{transform:translateX(-3534px)}28.2%{transform:translateX(-5022px)}28.3%{transform:translateX(-6882px)}34.5%{transform:translateX(-6975px)}38.3%{transform:translateX(-8370px)}45%{transform:translateX(-8463px)}51.6%{transform:translateX(-8649px)}51.8%{transform:translateX(-8742px)}52%{transform:translateX(-9114px)}52.1%{transform:translateX(-9207px)}52.2%{transform:translateX(-9300px)}52.3%{transform:translateX(-9486px)}63.8%{transform:translateX(-9951px)}63.9%{transform:translateX(-10137px)}69.7%{transform:translateX(-10323px)}74.1%{transform:translateX(-10416px)}75.3%{transform:translateX(-10509px)}76.8%{transform:translateX(-10602px)}77.5%{transform:translateX(-10695px)}77.8%{transform:translateX(-10788px)}78.9%{transform:translateX(-10881px)}80.5%{transform:translateX(-10974px)}82.1%{transform:translateX(-11067px)}82.7%{transform:translateX(-11160px)}83.1%{transform:translateX(-11253px)}85.1%{transform:translateX(-11346px)}88.8%{transform:translateX(-11811px)}88.9%{transform:translateX(-11997px)}to{transform:translateX(-12183px)}}.a{fill:#181a1b}.c,.d,.e,.g{white-space:pre}.c{fill:#00afff;font-weight:700}.d,.e,.g{fill:#5fd700}.e,.g{fill:#005fd7}.g{fill:#0087af}.h,.i,.j,.k,.l,.m{fill:#d7af00;white-space:pre}.i,.j,.k,.l,.m{fill:#00afff}.j,.k,.l,.m{fill:#5f8787}.k,.l,.m{fill:red}.l,.m{fill:#555}.m{fill:#f0f0eb;font-weight:700}.n,.o,.p,.q,.r{fill:#87875f;white-space:pre}.o,.p,.q,.r{fill:#3465a4}.p,.q,.r{fill:#555753}.q,.r{fill:#c4a000}.r{fill:#75507b}.s{fill:#f0f0eb}.s,.t,.u{white-space:pre}.t{fill:#c00;font-weight:700}.u{fill:#900}</style><g font-family="Monaco,Consolas,Menlo,'Bitstream Vera Sans Mono','Powerline Symbols',monospace" font-size="1.67"><defs><symbol id="1"><text y="1.67" class="c">~</text><text x="2.004" y="1.67" class="d">❯</text><text x="4.008" y="1.67" class="e">cd</text><text x="7.014" y="1.67" style="white-space:pre" fill="#00afff" text-decoration="underline">src/</text></symbol><symbol id="2"><text y="1.67" class="c">~</text><text x="1.002" y="1.67" class="g">/</text><text x="2.004" y="1.67" class="c">src</text><text x="6.012" y="1.67" class="d">master</text><text x="13.026" y="1.67" class="h">+1</text><text x="16.032" y="1.67" class="i">?2</text><text x="19.038" y="1.67" class="d">❯</text><text x="81.162" y="1.67" class="j">08:57:42</text><text x="90.18" y="1.67" class="j">PM</text></symbol><symbol id="3"><text y="1.67" class="c">~</text><text x="1.002" y="1.67" class="g">/</text><text x="2.004" y="1.67" class="c">src</text><text x="6.012" y="1.67" class="d">master</text><text x="13.026" y="1.67" class="h">+1</text><text x="16.032" y="1.67" class="i">?2</text><text x="19.038" y="1.67" class="d">❯</text><text x="81.162" y="1.67" class="j">08:57:43</text><text x="90.18" y="1.67" class="j">PM</text></symbol><symbol id="4"><text y="1.67" class="c">~</text><text x="1.002" y="1.67" class="g">/</text><text x="2.004" y="1.67" class="c">src</text><text x="6.012" y="1.67" class="d">master</text><text x="13.026" y="1.67" class="h">+1</text><text x="16.032" y="1.67" class="i">?2</text><text x="19.038" y="1.67" class="d">❯</text><text x="21.042" y="1.67" class="k">ti</text><text x="23.046" y="1.67" class="l">de</text><text x="26.052" y="1.67" class="l">configure</text><text x="81.162" y="1.67" class="j">08:57:43</text><text x="90.18" y="1.67" class="j">PM</text></symbol><symbol id="5"><text y="1.67" class="c">~</text><text x="1.002" y="1.67" class="g">/</text><text x="2.004" y="1.67" class="c">src</text><text x="6.012" y="1.67" class="d">master</text><text x="13.026" y="1.67" class="h">+1</text><text x="16.032" y="1.67" class="i">?2</text><text x="19.038" y="1.67" class="d">❯</text><text x="21.042" y="1.67" class="e">tide</text><text x="26.052" y="1.67" class="i">configure</text><text x="81.162" y="1.67" class="j">08:57:43</text><text x="90.18" y="1.67" class="j">PM</text></symbol><symbol id="6"><text x="44.088" y="1.67" class="m">Style</text></symbol><symbol id="7"><text y="1.67" class="m">(1)</text><text x="4.008" y="1.67" class="m">Lean</text></symbol><symbol id="8"><text x="90.18" y="1.67" class="n">5s</text></symbol><symbol id="9"><text y="1.67" class="c">~</text><text x="1.002" y="1.67" class="g">/</text><text x="2.004" y="1.67" class="c">src</text><text x="6.012" y="1.67" class="d">master</text><text x="90.18" y="1.67" class="n">5s</text></symbol><symbol id="10"><text y="1.67" class="d">❯</text></symbol><symbol id="11"><text y="1.67" class="m">(2)</text><text x="4.008" y="1.67" class="m">Pure</text></symbol><symbol id="12"><text y="1.67" class="o">~/src</text><text x="6.012" y="1.67" class="p">master</text><text x="13.026" y="1.67" class="q">5s</text></symbol><symbol id="13"><text y="1.67" class="r">❯</text></symbol><symbol id="14"><text y="1.67" class="s">(r)</text><text x="5.01" y="1.67" class="s">Restart</text><text x="13.026" y="1.67" class="s">from</text><text x="18.036" y="1.67" class="s">the</text><text x="22.044" y="1.67" class="s">beginning</text></symbol><symbol id="15"><text y="1.67" class="s">(q)</text><text x="5.01" y="1.67" class="s">Quit</text><text x="10.02" y="1.67" class="s">and</text><text x="14.028" y="1.67" class="s">do</text><text x="17.034" y="1.67" class="s">nothing</text></symbol><symbol id="16"><text y="1.67" class="m">Choice</text><text x="7.014" y="1.67" class="m">[1/2/r/q]</text><text x="17.034" y="1.67" class="s">2</text></symbol><symbol id="17"><text x="27.054" y="1.67" class="t">Overwrite</text><text x="37.074" y="1.67" class="t">tide</text><text x="42.084" y="1.67" class="t">config</text><text x="49.098" y="1.67" class="t">and</text><text x="53.106" y="1.67" class="t">fish_prompt?</text></symbol><symbol id="18"><text y="1.67" class="m">(y)</text><text x="4.008" y="1.67" class="m">Yes</text></symbol><symbol id="19"><text y="1.67" class="m">(n)</text><text x="4.008" y="1.67" class="m">No</text></symbol><symbol id="20"><text y="1.67" class="m">Choice</text><text x="7.014" y="1.67" class="m">[y/n]</text><text x="13.026" y="1.67" class="s">y</text></symbol><symbol id="21"><text y="1.67" class="s">string</text><text x="7.014" y="1.67" class="s">replace:</text><text x="16.032" y="1.67" class="s">Expected</text><text x="25.05" y="1.67" class="s">at</text><text x="28.056" y="1.67" class="s">least</text><text x="34.068" y="1.67" class="s">2</text><text x="36.072" y="1.67" class="s">args,</text><text x="42.084" y="1.67" class="s">got</text><text x="46.092" y="1.67" class="s">1</text></symbol><symbol id="22"><text y="1.67" class="o">~/src</text><text x="6.012" y="1.67" class="p">master*</text><text x="14.028" y="1.67" class="q">3s</text></symbol><symbol id="23"><text y="1.67" class="r">❯</text><text x="2.004" y="1.67" class="u">#Super</text></symbol><symbol id="24"><text y="1.67" class="r">❯</text><text x="2.004" y="1.67" class="u">#Super</text><text x="9.018" y="1.67" class="u">Pure!</text></symbol><symbol id="a"><path fill="transparent" d="M0 0h93v28H0z"/></symbol><symbol id="b"><path fill="#fff" d="M0 0h1.102v2.171H0z"/></symbol></defs><path class="a" d="M0 0h93v60.788H0z"/><g style="animation-duration:14.426288s;animation-iteration-count:infinite;animation-name:x;animation-timing-function:steps(1,end)"><svg width="12276"><svg><use xlink:href="#a"/><use xlink:href="#b" x="-.004"/></svg><svg x="93"><use xlink:href="#a"/><use xlink:href="#b" x="-.004"/></svg><svg x="186"><use xlink:href="#a"/><use xlink:href="#b" x="-.004"/></svg><svg x="279"><use xlink:href="#a"/><use xlink:href="#b" x="-.004"/></svg><svg x="372"><use xlink:href="#a"/><use xlink:href="#b" x="-.004"/></svg><svg x="465"><use xlink:href="#a"/><use xlink:href="#b" x="-.004"/></svg><svg x="558"><use xlink:href="#a"/><use xlink:href="#b" x="3.996" y="2.146"/><text y="3.841" class="c">~</text><text x="2.004" y="3.841" class="d">❯</text></svg><svg x="651"><use xlink:href="#a"/><use xlink:href="#b" x="4.996" y="2.146"/><text y="3.841" class="c">~</text><text x="2.004" y="3.841" class="d">❯</text><text x="4.008" y="3.841" class="s">c</text></svg><svg x="744"><use xlink:href="#a"/><use xlink:href="#b" x="4.996" y="2.146"/><text y="3.841" class="c">~</text><text x="2.004" y="3.841" class="d">❯</text><text x="4.008" y="3.841" class="k">c</text><text x="5.01" y="3.841" class="l">lear</text></svg><svg x="837"><use xlink:href="#a"/><use xlink:href="#b" x="5.996" y="2.146"/><text y="3.841" class="c">~</text><text x="2.004" y="3.841" class="d">❯</text><text x="4.008" y="3.841" class="k">cd</text></svg><svg x="930"><use xlink:href="#a"/><use xlink:href="#b" x="5.996" y="2.146"/><text y="3.841" class="c">~</text><text x="2.004" y="3.841" class="d">❯</text><text x="4.008" y="3.841" class="e">cd</text></svg><svg x="1023"><use xlink:href="#a"/><use xlink:href="#b" x="5.996" y="2.146"/><text y="3.841" class="c">~</text><text x="2.004" y="3.841" class="d">❯</text><text x="4.008" y="3.841" class="e">cd</text><text x="7.014" y="3.841" class="l">src/</text></svg><svg x="1116"><use xlink:href="#a"/><use xlink:href="#b" x="10.996" y="2.146"/><text y="3.841" class="c">~</text><text x="2.004" y="3.841" class="d">❯</text><text x="4.008" y="3.841" class="e">cd</text><text x="7.014" y="3.841" class="e">src/</text></svg><svg x="1209"><use xlink:href="#a"/><use xlink:href="#b" x="10.996" y="2.146"/><use xlink:href="#1" y="2.171"/></svg><svg x="1302"><use xlink:href="#a"/><use xlink:href="#b" x="-.004" y="4.317"/><use xlink:href="#1" y="2.171"/></svg><svg x="1395"><use xlink:href="#a"/><use xlink:href="#b" x="-.004" y="4.317"/><use xlink:href="#1" y="2.171"/></svg><svg x="1488"><use xlink:href="#a"/><use xlink:href="#b" x="-.004" y="4.317"/><use xlink:href="#1" y="2.171"/></svg><svg x="1581"><use xlink:href="#a"/><use xlink:href="#b" x="-.004" y="4.317"/><use xlink:href="#1" y="2.171"/></svg><svg x="1674"><use xlink:href="#a"/><use xlink:href="#b" x="-.004" y="4.317"/><use xlink:href="#1" y="2.171"/></svg><svg x="1767"><use xlink:href="#a"/><use xlink:href="#b" x="-.004" y="4.317"/><use xlink:href="#1" y="2.171"/></svg><svg x="1860"><use xlink:href="#a"/><use xlink:href="#b" x="-.004" y="4.317"/><use xlink:href="#1" y="2.171"/></svg><svg x="1953"><use xlink:href="#a"/><use xlink:href="#b" x="20.996" y="6.488"/><use xlink:href="#1" y="2.171"/><use xlink:href="#2" y="6.513"/></svg><svg x="2046"><use xlink:href="#a"/><use xlink:href="#b" x="-.004" y="6.488"/><use xlink:href="#1" y="2.171"/><use xlink:href="#2" y="6.513"/></svg><svg x="2139"><use xlink:href="#a"/><use xlink:href="#b" x="20.996" y="6.488"/><use xlink:href="#1" y="2.171"/><use xlink:href="#2" y="6.513"/></svg><svg x="2232"><use xlink:href="#a"/><use xlink:href="#b" x="-.004" y="8.659"/><use xlink:href="#1" y="2.171"/><use xlink:href="#2" y="6.513"/></svg><svg x="2325"><use xlink:href="#a"/><use xlink:href="#b" x="-.004" y="8.659"/><use xlink:href="#1" y="2.171"/><use xlink:href="#2" y="6.513"/></svg><svg x="2418"><use xlink:href="#a"/><use xlink:href="#b" x="-.004" y="8.659"/><use xlink:href="#1" y="2.171"/><use xlink:href="#2" y="6.513"/></svg><svg x="2511"><use xlink:href="#a"/><use xlink:href="#b" x="-.004" y="8.659"/><use xlink:href="#1" y="2.171"/><use xlink:href="#2" y="6.513"/></svg><svg x="2604"><use xlink:href="#a"/><use xlink:href="#b" x="-.004" y="8.659"/><use xlink:href="#1" y="2.171"/><use xlink:href="#2" y="6.513"/></svg><svg x="2697"><use xlink:href="#a"/><use xlink:href="#b" x="20.996" y="10.83"/><use xlink:href="#1" y="2.171"/><use xlink:href="#2" y="6.513"/><use xlink:href="#3" y="10.855"/></svg><svg x="2790"><use xlink:href="#a"/><use xlink:href="#b" x="-.004" y="10.83"/><use xlink:href="#1" y="2.171"/><use xlink:href="#2" y="6.513"/><use xlink:href="#3" y="10.855"/></svg><svg x="2883"><use xlink:href="#a"/><use xlink:href="#b" x="20.996" y="10.83"/><use xlink:href="#1" y="2.171"/><use xlink:href="#2" y="6.513"/><use xlink:href="#3" y="10.855"/></svg><svg x="2976"><use xlink:href="#a"/><use xlink:href="#b" x="21.996" y="10.83"/><use xlink:href="#1" y="2.171"/><use xlink:href="#2" y="6.513"/><text y="12.525" class="c">~</text><text x="1.002" y="12.525" class="g">/</text><text x="2.004" y="12.525" class="c">src</text><text x="6.012" y="12.525" class="d">master</text><text x="13.026" y="12.525" class="h">+1</text><text x="16.032" y="12.525" class="i">?2</text><text x="19.038" y="12.525" class="d">❯</text><text x="21.042" y="12.525" class="s">t</text><text x="81.162" y="12.525" class="j">08:57:43</text><text x="90.18" y="12.525" class="j">PM</text></svg><svg x="3069"><use xlink:href="#a"/><use xlink:href="#b" x="21.996" y="10.83"/><use xlink:href="#1" y="2.171"/><use xlink:href="#2" y="6.513"/><text y="12.525" class="c">~</text><text x="1.002" y="12.525" class="g">/</text><text x="2.004" y="12.525" class="c">src</text><text x="6.012" y="12.525" class="d">master</text><text x="13.026" y="12.525" class="h">+1</text><text x="16.032" y="12.525" class="i">?2</text><text x="19.038" y="12.525" class="d">❯</text><text x="21.042" y="12.525" class="k">t</text><text x="81.162" y="12.525" class="j">08:57:43</text><text x="90.18" y="12.525" class="j">PM</text></svg><svg x="3162"><use xlink:href="#a"/><use xlink:href="#b" x="21.996" y="10.83"/><use xlink:href="#1" y="2.171"/><use xlink:href="#2" y="6.513"/><text y="12.525" class="c">~</text><text x="1.002" y="12.525" class="g">/</text><text x="2.004" y="12.525" class="c">src</text><text x="6.012" y="12.525" class="d">master</text><text x="13.026" y="12.525" class="h">+1</text><text x="16.032" y="12.525" class="i">?2</text><text x="19.038" y="12.525" class="d">❯</text><text x="21.042" y="12.525" class="k">t</text><text x="22.044" y="12.525" class="l">ide</text><text x="26.052" y="12.525" class="l">configure</text><text x="81.162" y="12.525" class="j">08:57:43</text><text x="90.18" y="12.525" class="j">PM</text></svg><svg x="3255"><use xlink:href="#a"/><use xlink:href="#b" x="22.996" y="10.83"/><use xlink:href="#1" y="2.171"/><use xlink:href="#2" y="6.513"/><use xlink:href="#4" y="10.855"/></svg><svg x="3348"><use xlink:href="#a"/><use xlink:href="#b" x="22.996" y="10.83"/><use xlink:href="#1" y="2.171"/><use xlink:href="#2" y="6.513"/><use xlink:href="#4" y="10.855"/></svg><svg x="3441"><use xlink:href="#a"/><use xlink:href="#b" x="34.996" y="10.83"/><use xlink:href="#1" y="2.171"/><use xlink:href="#2" y="6.513"/><text y="12.525" class="c">~</text><text x="1.002" y="12.525" class="g">/</text><text x="2.004" y="12.525" class="c">src</text><text x="6.012" y="12.525" class="d">master</text><text x="13.026" y="12.525" class="h">+1</text><text x="16.032" y="12.525" class="i">?2</text><text x="19.038" y="12.525" class="d">❯</text><text x="21.042" y="12.525" class="k">tide</text><text x="26.052" y="12.525" class="k">configure</text><text x="81.162" y="12.525" class="j">08:57:43</text><text x="90.18" y="12.525" class="j">PM</text></svg><svg x="3534"><use xlink:href="#a"/><use xlink:href="#b" x="34.996" y="10.83"/><use xlink:href="#1" y="2.171"/><use xlink:href="#2" y="6.513"/><use xlink:href="#5" y="10.855"/></svg><svg x="3627"><use xlink:href="#a"/><use xlink:href="#b" x="-.004" y="13.001"/><use xlink:href="#1" y="2.171"/><use xlink:href="#2" y="6.513"/><use xlink:href="#5" y="10.855"/></svg><svg x="3720"><use xlink:href="#a"/><use xlink:href="#b" x="-.004" y="13.001"/><use xlink:href="#1" y="2.171"/><use xlink:href="#2" y="6.513"/><use xlink:href="#5" y="10.855"/></svg><svg x="3813"><use xlink:href="#a"/><use xlink:href="#b" x="-.004" y="13.001"/><use xlink:href="#1" y="2.171"/><use xlink:href="#2" y="6.513"/><use xlink:href="#5" y="10.855"/></svg><svg x="3906"><use xlink:href="#a"/><use xlink:href="#b" x="-.004"/></svg><svg x="3999"><use xlink:href="#a"/><use xlink:href="#b" x="43.996"/></svg><svg x="4092"><use xlink:href="#a"/><use xlink:href="#b" x="-.004" y="2.146"/><use xlink:href="#6"/></svg><svg x="4185"><use xlink:href="#a"/><use xlink:href="#b" x="-.004" y="4.317"/><use xlink:href="#6"/><use xlink:href="#7" y="2.171"/></svg><svg x="4278"><use xlink:href="#a"/><use xlink:href="#b" x="-.004" y="4.317"/><use xlink:href="#6"/><use xlink:href="#7" y="2.171"/></svg><svg x="4371"><use xlink:href="#a"/><use xlink:href="#b" x="-.004" y="4.317"/><use xlink:href="#6"/><use xlink:href="#7" y="2.171"/></svg><svg x="4464"><use xlink:href="#a"/><use xlink:href="#b" x="92.996" y="4.317"/><use xlink:href="#6"/><use xlink:href="#7" y="2.171"/></svg><svg x="4557"><use xlink:href="#a"/><use xlink:href="#b" x="-.004" y="4.317"/><use xlink:href="#6"/><use xlink:href="#7" y="2.171"/></svg><svg x="4650"><use xlink:href="#a"/><use xlink:href="#b" x="92.996" y="4.317"/><use xlink:href="#6"/><use xlink:href="#7" y="2.171"/><use xlink:href="#8" y="4.342"/></svg><svg x="4743"><use xlink:href="#a"/><use xlink:href="#b" x="91.996" y="6.488"/><use xlink:href="#6"/><use xlink:href="#7" y="2.171"/><use xlink:href="#8" y="4.342"/></svg><svg x="4836"><use xlink:href="#a"/><use xlink:href="#b" x="-.004" y="6.488"/><use xlink:href="#6"/><use xlink:href="#7" y="2.171"/><use xlink:href="#8" y="4.342"/></svg><svg x="4929"><use xlink:href="#a"/><use xlink:href="#b" x="-.004" y="4.317"/><use xlink:href="#6"/><use xlink:href="#7" y="2.171"/><use xlink:href="#8" y="4.342"/></svg><svg x="5022"><use xlink:href="#a"/><use xlink:href="#b" x="-.004" y="6.488"/><use xlink:href="#6"/><use xlink:href="#7" y="2.171"/><use xlink:href="#9" y="4.342"/></svg><svg x="5115"><use xlink:href="#a"/><use xlink:href="#b" x="-.004" y="13.001"/><use xlink:href="#6"/><use xlink:href="#7" y="2.171"/><use xlink:href="#9" y="4.342"/><use xlink:href="#10" y="6.513"/><use xlink:href="#11" y="10.855"/></svg><svg x="5208"><use xlink:href="#a"/><use xlink:href="#b" x="-.004" y="13.001"/><use xlink:href="#6"/><use xlink:href="#7" y="2.171"/><use xlink:href="#9" y="4.342"/><use xlink:href="#10" y="6.513"/><use xlink:href="#11" y="10.855"/></svg><svg x="5301"><use xlink:href="#a"/><use xlink:href="#b" x="92.996" y="13.001"/><use xlink:href="#6"/><use xlink:href="#7" y="2.171"/><use xlink:href="#9" y="4.342"/><use xlink:href="#10" y="6.513"/><use xlink:href="#11" y="10.855"/></svg><svg x="5394"><use xlink:href="#a"/><use xlink:href="#b" x="-.004" y="13.001"/><use xlink:href="#6"/><use xlink:href="#7" y="2.171"/><use xlink:href="#9" y="4.342"/><use xlink:href="#10" y="6.513"/><use xlink:href="#11" y="10.855"/></svg><svg x="5487"><use xlink:href="#a"/><use xlink:href="#b" x="92.996" y="13.001"/><use xlink:href="#6"/><use xlink:href="#7" y="2.171"/><use xlink:href="#9" y="4.342"/><use xlink:href="#10" y="6.513"/><use xlink:href="#11" y="10.855"/></svg><svg x="5580"><use xlink:href="#a"/><use xlink:href="#b" x="-.004" y="15.172"/><use xlink:href="#6"/><use xlink:href="#7" y="2.171"/><use xlink:href="#9" y="4.342"/><use xlink:href="#10" y="6.513"/><use xlink:href="#11" y="10.855"/></svg><svg x="5673"><use xlink:href="#a"/><use xlink:href="#b" x="-.004" y="13.001"/><use xlink:href="#6"/><use xlink:href="#7" y="2.171"/><use xlink:href="#9" y="4.342"/><use xlink:href="#10" y="6.513"/><use xlink:href="#11" y="10.855"/></svg><svg x="5766"><use xlink:href="#a"/><use xlink:href="#b" x="5.996" y="13.001"/><use xlink:href="#6"/><use xlink:href="#7" y="2.171"/><use xlink:href="#9" y="4.342"/><use xlink:href="#10" y="6.513"/><use xlink:href="#11" y="10.855"/><text y="14.696" class="o">~/src</text></svg><svg x="5859"><use xlink:href="#a"/><use xlink:href="#b" x="12.996" y="13.001"/><use xlink:href="#6"/><use xlink:href="#7" y="2.171"/><use xlink:href="#9" y="4.342"/><use xlink:href="#10" y="6.513"/><use xlink:href="#11" y="10.855"/><text y="14.696" class="o">~/src</text><text x="6.012" y="14.696" class="p">master</text></svg><svg x="5952"><use xlink:href="#a"/><use xlink:href="#b" x="15.996" y="13.001"/><use xlink:href="#6"/><use xlink:href="#7" y="2.171"/><use xlink:href="#9" y="4.342"/><use xlink:href="#10" y="6.513"/><use xlink:href="#11" y="10.855"/><use xlink:href="#12" y="13.026"/></svg><svg x="6045"><use xlink:href="#a"/><use xlink:href="#b" x="-.004" y="15.172"/><use xlink:href="#6"/><use xlink:href="#7" y="2.171"/><use xlink:href="#9" y="4.342"/><use xlink:href="#10" y="6.513"/><use xlink:href="#11" y="10.855"/><use xlink:href="#12" y="13.026"/></svg><svg x="6138"><use xlink:href="#a"/><use xlink:href="#b" x="1.996" y="15.172"/><use xlink:href="#6"/><use xlink:href="#7" y="2.171"/><use xlink:href="#9" y="4.342"/><use xlink:href="#10" y="6.513"/><use xlink:href="#11" y="10.855"/><use xlink:href="#12" y="13.026"/><use xlink:href="#13" y="15.197"/></svg><svg x="6231"><use xlink:href="#a"/><use xlink:href="#b" x="-.004" y="19.514"/><use xlink:href="#6"/><use xlink:href="#7" y="2.171"/><use xlink:href="#9" y="4.342"/><use xlink:href="#10" y="6.513"/><use xlink:href="#11" y="10.855"/><use xlink:href="#12" y="13.026"/><use xlink:href="#13" y="15.197"/></svg><svg x="6324"><use xlink:href="#a"/><use xlink:href="#b" x="-.004" y="23.856"/><use xlink:href="#6"/><use xlink:href="#7" y="2.171"/><use xlink:href="#9" y="4.342"/><use xlink:href="#10" y="6.513"/><use xlink:href="#11" y="10.855"/><use xlink:href="#12" y="13.026"/><use xlink:href="#13" y="15.197"/><use xlink:href="#14" y="19.539"/></svg><svg x="6417"><use xlink:href="#a"/><use xlink:href="#b" x="-.004" y="28.198"/><use xlink:href="#6"/><use xlink:href="#7" y="2.171"/><use xlink:href="#9" y="4.342"/><use xlink:href="#10" y="6.513"/><use xlink:href="#11" y="10.855"/><use xlink:href="#12" y="13.026"/><use xlink:href="#13" y="15.197"/><use xlink:href="#14" y="19.539"/><use xlink:href="#15" y="23.881"/></svg><svg x="6510"><use xlink:href="#a"/><use xlink:href="#b" x="-.004" y="28.198"/><use xlink:href="#6"/><use xlink:href="#7" y="2.171"/><use xlink:href="#9" y="4.342"/><use xlink:href="#10" y="6.513"/><use xlink:href="#11" y="10.855"/><use xlink:href="#12" y="13.026"/><use xlink:href="#13" y="15.197"/><use xlink:href="#14" y="19.539"/><use xlink:href="#15" y="23.881"/></svg><svg x="6603"><use xlink:href="#a"/><use xlink:href="#b" x="-.004" y="28.198"/><use xlink:href="#6"/><use xlink:href="#7" y="2.171"/><use xlink:href="#9" y="4.342"/><use xlink:href="#10" y="6.513"/><use xlink:href="#11" y="10.855"/><use xlink:href="#12" y="13.026"/><use xlink:href="#13" y="15.197"/><use xlink:href="#14" y="19.539"/><use xlink:href="#15" y="23.881"/></svg><svg x="6696"><use xlink:href="#a"/><use xlink:href="#b" x="-.004" y="28.198"/><use xlink:href="#6"/><use xlink:href="#7" y="2.171"/><use xlink:href="#9" y="4.342"/><use xlink:href="#10" y="6.513"/><use xlink:href="#11" y="10.855"/><use xlink:href="#12" y="13.026"/><use xlink:href="#13" y="15.197"/><use xlink:href="#14" y="19.539"/><use xlink:href="#15" y="23.881"/></svg><svg x="6789"><use xlink:href="#a"/><use xlink:href="#b" x="-.004" y="28.198"/><use xlink:href="#6"/><use xlink:href="#7" y="2.171"/><use xlink:href="#9" y="4.342"/><use xlink:href="#10" y="6.513"/><use xlink:href="#11" y="10.855"/><use xlink:href="#12" y="13.026"/><use xlink:href="#13" y="15.197"/><use xlink:href="#14" y="19.539"/><use xlink:href="#15" y="23.881"/></svg><svg x="6882"><use xlink:href="#a"/><use xlink:href="#b" x="16.996" y="28.198"/><use xlink:href="#6"/><use xlink:href="#7" y="2.171"/><use xlink:href="#9" y="4.342"/><use xlink:href="#10" y="6.513"/><use xlink:href="#11" y="10.855"/><use xlink:href="#12" y="13.026"/><use xlink:href="#13" y="15.197"/><use xlink:href="#14" y="19.539"/><use xlink:href="#15" y="23.881"/><text y="29.893" class="m">Choice</text><text x="7.014" y="29.893" class="m">[1/2/r/q]</text></svg><svg x="6975"><use xlink:href="#a"/><use xlink:href="#b" x="17.996" y="28.198"/><use xlink:href="#6"/><use xlink:href="#7" y="2.171"/><use xlink:href="#9" y="4.342"/><use xlink:href="#10" y="6.513"/><use xlink:href="#11" y="10.855"/><use xlink:href="#12" y="13.026"/><use xlink:href="#13" y="15.197"/><use xlink:href="#14" y="19.539"/><use xlink:href="#15" y="23.881"/><use xlink:href="#16" y="28.223"/></svg><svg x="7068"><use xlink:href="#a"/><use xlink:href="#b" x="-.004" y="30.369"/><use xlink:href="#6"/><use xlink:href="#7" y="2.171"/><use xlink:href="#9" y="4.342"/><use xlink:href="#10" y="6.513"/><use xlink:href="#11" y="10.855"/><use xlink:href="#12" y="13.026"/><use xlink:href="#13" y="15.197"/><use xlink:href="#14" y="19.539"/><use xlink:href="#15" y="23.881"/><use xlink:href="#16" y="28.223"/></svg><svg x="7161"><use xlink:href="#a"/><use xlink:href="#b" x="-.004" y="30.369"/><use xlink:href="#6"/><use xlink:href="#7" y="2.171"/><use xlink:href="#9" y="4.342"/><use xlink:href="#10" y="6.513"/><use xlink:href="#11" y="10.855"/><use xlink:href="#12" y="13.026"/><use xlink:href="#13" y="15.197"/><use xlink:href="#14" y="19.539"/><use xlink:href="#15" y="23.881"/><use xlink:href="#16" y="28.223"/></svg><svg x="7254"><use xlink:href="#a"/><use xlink:href="#b" x="-.004"/></svg><svg x="7347"><use xlink:href="#a"/><use xlink:href="#b" x="26.996"/></svg><svg x="7440"><use xlink:href="#a"/><use xlink:href="#b" x="-.004" y="2.146"/><use xlink:href="#17"/></svg><svg x="7533"><use xlink:href="#a"/><use xlink:href="#b" x="-.004" y="2.146"/><use xlink:href="#17"/></svg><svg x="7626"><use xlink:href="#a"/><use xlink:href="#b" x="-.004" y="2.146"/><use xlink:href="#17"/></svg><svg x="7719"><use xlink:href="#a"/><use xlink:href="#b" x="-.004" y="8.659"/><use xlink:href="#17"/><use xlink:href="#18" y="2.171"/></svg><svg x="7812"><use xlink:href="#a"/><use xlink:href="#b" x="-.004" y="10.83"/><use xlink:href="#17"/><use xlink:href="#18" y="2.171"/><use xlink:href="#19" y="8.684"/></svg><svg x="7905"><use xlink:href="#a"/><use xlink:href="#b" x="-.004" y="15.172"/><use xlink:href="#17"/><use xlink:href="#18" y="2.171"/><use xlink:href="#19" y="8.684"/></svg><svg x="7998"><use xlink:href="#a"/><use xlink:href="#b" x="-.004" y="15.172"/><use xlink:href="#17"/><use xlink:href="#18" y="2.171"/><use xlink:href="#19" y="8.684"/></svg><svg x="8091"><use xlink:href="#a"/><use xlink:href="#b" x="-.004" y="15.172"/><use xlink:href="#17"/><use xlink:href="#18" y="2.171"/><use xlink:href="#19" y="8.684"/></svg><svg x="8184"><use xlink:href="#a"/><use xlink:href="#b" x="-.004" y="15.172"/><use xlink:href="#17"/><use xlink:href="#18" y="2.171"/><use xlink:href="#19" y="8.684"/></svg><svg x="8277"><use xlink:href="#a"/><use xlink:href="#b" x="-.004" y="15.172"/><use xlink:href="#17"/><use xlink:href="#18" y="2.171"/><use xlink:href="#19" y="8.684"/></svg><svg x="8370"><use xlink:href="#a"/><use xlink:href="#b" x="12.996" y="15.172"/><use xlink:href="#17"/><use xlink:href="#18" y="2.171"/><use xlink:href="#19" y="8.684"/><text y="16.867" class="m">Choice</text><text x="7.014" y="16.867" class="m">[y/n]</text></svg><svg x="8463"><use xlink:href="#a"/><use xlink:href="#b" x="13.996" y="15.172"/><use xlink:href="#17"/><use xlink:href="#18" y="2.171"/><use xlink:href="#19" y="8.684"/><use xlink:href="#20" y="15.197"/></svg><svg x="8556"><use xlink:href="#a"/><use xlink:href="#b" x="-.004" y="17.343"/><use xlink:href="#17"/><use xlink:href="#18" y="2.171"/><use xlink:href="#19" y="8.684"/><use xlink:href="#20" y="15.197"/></svg><svg x="8649"><use xlink:href="#a"/><use xlink:href="#b" x="-.004" y="17.343"/><use xlink:href="#17"/><use xlink:href="#18" y="2.171"/><use xlink:href="#19" y="8.684"/><use xlink:href="#20" y="15.197"/></svg><svg x="8742"><use xlink:href="#a"/><use xlink:href="#b" x="-.004" y="19.514"/><use xlink:href="#17"/><use xlink:href="#18" y="2.171"/><use xlink:href="#19" y="8.684"/><use xlink:href="#20" y="15.197"/><use xlink:href="#21" y="17.368"/></svg><svg x="8835"><use xlink:href="#a"/><use xlink:href="#b" x="-.004" y="19.514"/><use xlink:href="#17"/><use xlink:href="#18" y="2.171"/><use xlink:href="#19" y="8.684"/><use xlink:href="#20" y="15.197"/><use xlink:href="#21" y="17.368"/></svg><svg x="8928"><use xlink:href="#a"/><use xlink:href="#b" x="-.004"/></svg><svg x="9021"><use xlink:href="#a"/><use xlink:href="#b" x="-.004"/></svg><svg x="9114"><use xlink:href="#a"/><use xlink:href="#b" x="-.004"/></svg><svg x="9207"><use xlink:href="#a"/><use xlink:href="#b" x="-.004"/></svg><svg x="9300"><use xlink:href="#a"/><use xlink:href="#b" x="1.996" y="4.317"/><use xlink:href="#22" y="2.171"/><use xlink:href="#13" y="4.342"/></svg><svg x="9393"><use xlink:href="#a"/><use xlink:href="#b" x="-.004" y="4.317"/><use xlink:href="#22" y="2.171"/><use xlink:href="#13" y="4.342"/></svg><svg x="9486"><use xlink:href="#a"/><use xlink:href="#b" x="1.996" y="4.317"/><use xlink:href="#22" y="2.171"/><use xlink:href="#13" y="4.342"/></svg><svg x="9579"><use xlink:href="#a"/><use xlink:href="#b" x="-.004" y="6.488"/><use xlink:href="#22" y="2.171"/><use xlink:href="#13" y="4.342"/></svg><svg x="9672"><use xlink:href="#a"/><use xlink:href="#b" x="-.004" y="6.488"/><use xlink:href="#22" y="2.171"/><use xlink:href="#13" y="4.342"/></svg><svg x="9765"><use xlink:href="#a"/><use xlink:href="#b" x="-.004" y="6.488"/><use xlink:href="#22" y="2.171"/><use xlink:href="#13" y="4.342"/></svg><svg x="9858"><use xlink:href="#a"/><use xlink:href="#b" x="-.004" y="6.488"/><use xlink:href="#22" y="2.171"/><use xlink:href="#13" y="4.342"/></svg><svg x="9951"><use xlink:href="#a"/><use xlink:href="#b" x="-.004" y="6.488"/><use xlink:href="#22" y="2.171"/><use xlink:href="#13" y="4.342"/></svg><svg x="10044"><use xlink:href="#a"/><use xlink:href="#b" x="-.004" y="6.488"/><use xlink:href="#22" y="2.171"/><use xlink:href="#13" y="4.342"/></svg><svg x="10137"><use xlink:href="#a"/><use xlink:href="#b" x="1.996" y="10.83"/><use xlink:href="#22" y="2.171"/><use xlink:href="#13" y="4.342"/><use xlink:href="#22" y="8.684"/><use xlink:href="#13" y="10.855"/></svg><svg x="10230"><use xlink:href="#a"/><use xlink:href="#b" x="2.996" y="10.83"/><use xlink:href="#22" y="2.171"/><use xlink:href="#13" y="4.342"/><use xlink:href="#22" y="8.684"/><text y="12.525" class="r">❯</text><text x="2.004" y="12.525" class="s">#</text></svg><svg x="10323"><use xlink:href="#a"/><use xlink:href="#b" x="2.996" y="10.83"/><use xlink:href="#22" y="2.171"/><use xlink:href="#13" y="4.342"/><use xlink:href="#22" y="8.684"/><text y="12.525" class="r">❯</text><text x="2.004" y="12.525" class="u">#</text></svg><svg x="10416"><use xlink:href="#a"/><use xlink:href="#b" x="3.996" y="10.83"/><use xlink:href="#22" y="2.171"/><use xlink:href="#13" y="4.342"/><use xlink:href="#22" y="8.684"/><text y="12.525" class="r">❯</text><text x="2.004" y="12.525" class="u">#S</text></svg><svg x="10509"><use xlink:href="#a"/><use xlink:href="#b" x="4.996" y="10.83"/><use xlink:href="#22" y="2.171"/><use xlink:href="#13" y="4.342"/><use xlink:href="#22" y="8.684"/><text y="12.525" class="r">❯</text><text x="2.004" y="12.525" class="u">#Su</text></svg><svg x="10602"><use xlink:href="#a"/><use xlink:href="#b" x="5.996" y="10.83"/><use xlink:href="#22" y="2.171"/><use xlink:href="#13" y="4.342"/><use xlink:href="#22" y="8.684"/><text y="12.525" class="r">❯</text><text x="2.004" y="12.525" class="u">#Sup</text></svg><svg x="10695"><use xlink:href="#a"/><use xlink:href="#b" x="6.996" y="10.83"/><use xlink:href="#22" y="2.171"/><use xlink:href="#13" y="4.342"/><use xlink:href="#22" y="8.684"/><text y="12.525" class="r">❯</text><text x="2.004" y="12.525" class="u">#Supe</text></svg><svg x="10788"><use xlink:href="#a"/><use xlink:href="#b" x="7.996" y="10.83"/><use xlink:href="#22" y="2.171"/><use xlink:href="#13" y="4.342"/><use xlink:href="#22" y="8.684"/><use xlink:href="#23" y="10.855"/></svg><svg x="10881"><use xlink:href="#a"/><use xlink:href="#b" x="8.996" y="10.83"/><use xlink:href="#22" y="2.171"/><use xlink:href="#13" y="4.342"/><use xlink:href="#22" y="8.684"/><use xlink:href="#23" y="10.855"/></svg><svg x="10974"><use xlink:href="#a"/><use xlink:href="#b" x="9.996" y="10.83"/><use xlink:href="#22" y="2.171"/><use xlink:href="#13" y="4.342"/><use xlink:href="#22" y="8.684"/><text y="12.525" class="r">❯</text><text x="2.004" y="12.525" class="u">#Super</text><text x="9.018" y="12.525" class="u">P</text></svg><svg x="11067"><use xlink:href="#a"/><use xlink:href="#b" x="10.996" y="10.83"/><use xlink:href="#22" y="2.171"/><use xlink:href="#13" y="4.342"/><use xlink:href="#22" y="8.684"/><text y="12.525" class="r">❯</text><text x="2.004" y="12.525" class="u">#Super</text><text x="9.018" y="12.525" class="u">Pu</text></svg><svg x="11160"><use xlink:href="#a"/><use xlink:href="#b" x="11.996" y="10.83"/><use xlink:href="#22" y="2.171"/><use xlink:href="#13" y="4.342"/><use xlink:href="#22" y="8.684"/><text y="12.525" class="r">❯</text><text x="2.004" y="12.525" class="u">#Super</text><text x="9.018" y="12.525" class="u">Pur</text></svg><svg x="11253"><use xlink:href="#a"/><use xlink:href="#b" x="12.996" y="10.83"/><use xlink:href="#22" y="2.171"/><use xlink:href="#13" y="4.342"/><use xlink:href="#22" y="8.684"/><text y="12.525" class="r">❯</text><text x="2.004" y="12.525" class="u">#Super</text><text x="9.018" y="12.525" class="u">Pure</text></svg><svg x="11346"><use xlink:href="#a"/><use xlink:href="#b" x="13.996" y="10.83"/><use xlink:href="#22" y="2.171"/><use xlink:href="#13" y="4.342"/><use xlink:href="#22" y="8.684"/><use xlink:href="#24" y="10.855"/></svg><svg x="11439"><use xlink:href="#a"/><use xlink:href="#b" x="-.004" y="13.001"/><use xlink:href="#22" y="2.171"/><use xlink:href="#13" y="4.342"/><use xlink:href="#22" y="8.684"/><use xlink:href="#24" y="10.855"/></svg><svg x="11532"><use xlink:href="#a"/><use xlink:href="#b" x="-.004" y="13.001"/><use xlink:href="#22" y="2.171"/><use xlink:href="#13" y="4.342"/><use xlink:href="#22" y="8.684"/><use xlink:href="#24" y="10.855"/></svg><svg x="11625"><use xlink:href="#a"/><use xlink:href="#b" x="-.004" y="13.001"/><use xlink:href="#22" y="2.171"/><use xlink:href="#13" y="4.342"/><use xlink:href="#22" y="8.684"/><use xlink:href="#24" y="10.855"/></svg><svg x="11718"><use xlink:href="#a"/><use xlink:href="#b" x="-.004" y="13.001"/><use xlink:href="#22" y="2.171"/><use xlink:href="#13" y="4.342"/><use xlink:href="#22" y="8.684"/><use xlink:href="#24" y="10.855"/></svg><svg x="11811"><use xlink:href="#a"/><use xlink:href="#b" x="-.004" y="13.001"/><use xlink:href="#22" y="2.171"/><use xlink:href="#13" y="4.342"/><use xlink:href="#22" y="8.684"/><use xlink:href="#24" y="10.855"/></svg><svg x="11904"><use xlink:href="#a"/><use xlink:href="#b" x="-.004" y="13.001"/><use xlink:href="#22" y="2.171"/><use xlink:href="#13" y="4.342"/><use xlink:href="#22" y="8.684"/><use xlink:href="#24" y="10.855"/></svg><svg x="11997"><use xlink:href="#a"/><use xlink:href="#b" x="1.996" y="17.343"/><use xlink:href="#22" y="2.171"/><use xlink:href="#13" y="4.342"/><use xlink:href="#22" y="8.684"/><use xlink:href="#24" y="10.855"/><use xlink:href="#22" y="15.197"/><use xlink:href="#13" y="17.368"/></svg><svg x="12090"><use xlink:href="#a"/><use xlink:href="#b" x="-.004" y="19.514"/><use xlink:href="#22" y="2.171"/><use xlink:href="#13" y="4.342"/><use xlink:href="#22" y="8.684"/><use xlink:href="#24" y="10.855"/><use xlink:href="#22" y="15.197"/><use xlink:href="#13" y="17.368"/></svg><svg x="12183"><use xlink:href="#a"/><use xlink:href="#b" x="-.004" y="19.514"/><use xlink:href="#22" y="2.171"/><use xlink:href="#13" y="4.342"/><use xlink:href="#22" y="8.684"/><use xlink:href="#24" y="10.855"/><use xlink:href="#22" y="15.197"/><use xlink:href="#13" y="17.368"/></svg></svg></g></g></svg></svg>